<svg xmlns="http://www.w3.org/2000/svg" aria-hidden="true" fill="none" focusable="false" height="54" viewBox="0 0 269.4761904761905 54" width="269.4761904761905"><g><g transform="translate(2 2) scale(0.3968253968253968)"><path d="M223 0H34.825c-13.992 0-21.925 13.52-24.028 17.671C3.636 31.809 0 47.055 0 63s3.636 31.2 10.797 45.329C12.9 112.48 20.833 126 34.825 126H223" fill="none" stroke="white" stroke-linecap="butt" stroke-linejoin="round" stroke-width="10.08"></path><path d="M223 126H34.825c-13.992 0-21.925-13.52-24.028-17.671C3.636 94.191 0 78.945 0 63s3.636-31.2 10.797-45.34C12.9 13.52 20.843 0 34.825 0H223v126" fill="#FF9E18" fill-rule="evenodd"></path></g><g transform="translate(90.4920634920635 2) scale(0.3968253968253968)"><path d="M0 0H223M0 126H223" fill="none" stroke="white" stroke-linecap="butt" stroke-linejoin="round" stroke-width="10.08"></path><path d="M0 63V0h223v126H0z" fill="#9E28B5" fill-rule="evenodd"></path></g><g transform="translate(178.984126984127 2) scale(0.3968253968253968)"><path d="M0 0h188.177c13.981 0 21.923 13.52 24.027 17.66C219.364 31.8 223 47.056 223 63s-3.636 31.2-10.796 45.329C210.1 112.47 202.168 126 188.177 126H0" fill="none" stroke="white" stroke-linecap="butt" stroke-linejoin="round" stroke-width="10.08"></path><path d="M0 0h188.177c13.981 0 21.923 13.52 24.027 17.66C219.364 31.8 223 47.056 223 63s-3.636 31.2-10.796 45.329C210.1 112.47 202.168 126 188.177 126H0z" fill="#E1251B" fill-rule="evenodd"></path></g></g><g><g transform="translate(23.218687996031747 2)"><path d="M14.9 15.8L14.1 18.2Q13.5 17.9 12.6 17.6Q11.7 17.2 10.6 17.2Q8.9 17.2 7.8 18.3Q6.6 19.3 6.1 21.1Q5.5 22.8 5.5 25Q5.5 28.6 6.8 30.7Q8.1 32.7 10.4 32.7Q11.1 32.7 11.9 32.5Q12.6 32.3 13.2 32.1Q13.8 31.8 14.1 31.6L14.9 34Q14 34.5 12.7 34.8Q11.4 35.1 9.6 35.1Q7.3 35.1 5.7 34.3Q4.1 33.5 3.1 32.1Q2 30.7 1.5 28.8Q1.1 27 1.1 25.1Q1.1 22.2 2.1 19.9Q3.2 17.6 5.2 16.2Q7.2 14.9 10.1 14.9Q12.9 14.9 14.9 15.8M29.6 15.8L28.9 18.2Q28.3 17.9 27.4 17.6Q26.4 17.2 25.4 17.2Q23.7 17.2 22.5 18.3Q21.4 19.3 20.8 21.1Q20.2 22.8 20.2 25Q20.2 28.6 21.6 30.7Q22.9 32.7 25.1 32.7Q25.9 32.7 26.6 32.5Q27.3 32.3 27.9 32.1Q28.5 31.8 28.9 31.6L29.7 34Q28.8 34.5 27.4 34.8Q26.1 35.1 24.3 35.1Q22.1 35.1 20.5 34.3Q18.8 33.5 17.8 32.1Q16.8 30.7 16.3 28.8Q15.8 27 15.8 25.1Q15.8 22.2 16.9 19.9Q17.9 17.6 19.9 16.2Q22 14.9 24.9 14.9Q27.6 14.9 29.6 15.8" fill="#231F20"></path><path d="M34.3 19.2L41.4 15.2L43.8 15.2L43.8 34.8L40.1 34.8L40.1 18.2L35.3 21" fill="#231F20"></path></g><g transform="translate(107.57500930059524 2)"><path d="M16.6 15L16.6 34.8L14.1 34.8L4.3 21.5L4.3 34.8L1.7 34.8L1.7 15.2L4.2 15.2L13.9 28.4L13.9 17.3Q13.9 16.9 14.3 16.3Q14.7 15.8 15.3 15.4Q15.9 15 16.6 15M31.9 34.8L20.2 34.8L20.2 20.8Q20.2 20 21.1 19Q22 17.9 23.4 17.5L23.4 17.4L19.8 17.4L19.6 15.2L31.8 15.2L31.8 17.6L24.2 17.6L24.2 23.5L31.3 23.5L31.3 25.8L24.2 25.8L24.2 32.3L31.9 32.3" fill="white"></path><path d="M52.2 15.9L51.4 18.1Q50.9 17.8 50 17.5Q49.1 17.2 48.1 17.2Q46.5 17.2 45.5 18Q44.5 18.9 44 20.6Q43.5 22.2 43.5 24.4Q43.5 24.7 43.5 24.9Q44 23.9 44.8 23.4Q45.5 22.9 46.3 22.7Q47.1 22.5 47.7 22.5Q49.1 22.5 50.4 23.2Q51.6 23.9 52.4 25.2Q53.2 26.5 53.2 28.5Q53.2 30.4 52.4 31.9Q51.6 33.4 50.1 34.2Q48.6 35.1 46.6 35.1Q44.9 35.1 43.6 34.5Q42.4 33.9 41.6 32.9Q40.8 31.9 40.3 30.6Q39.8 29.4 39.6 28Q39.5 26.6 39.5 25.4Q39.5 21.9 40.6 19.6Q41.7 17.3 43.6 16.1Q45.5 14.9 47.8 14.9Q48.9 14.9 49.7 15.1Q50.6 15.2 51.2 15.5Q51.8 15.7 52.2 15.9M43.8 29Q43.8 29.7 43.9 30.4Q44 31.1 44.3 31.8Q44.6 32.4 45.2 32.8Q45.7 33.1 46.5 33.1Q47.4 33.1 48 32.7Q48.6 32.3 48.8 31.6Q49.1 30.9 49.2 30.2Q49.3 29.4 49.3 28.8Q49.3 27.3 48.9 26.4Q48.6 25.5 47.9 25.1Q47.3 24.7 46.6 24.7Q45.1 24.7 44.5 25.9Q43.8 27 43.8 29" fill="white"></path></g><g transform="translate(189.18328373015873 2)"><path d="M16.6 15L16.6 34.8L14.1 34.8L4.3 21.5L4.3 34.8L1.7 34.8L1.7 15.2L4.2 15.2L13.9 28.4L13.9 17.3Q13.9 16.9 14.3 16.3Q14.7 15.8 15.3 15.4Q15.9 15 16.6 15M30.3 15.7L29.5 18.1Q28.8 17.7 27.8 17.4Q26.8 17.2 25.8 17.2Q24.4 17.2 23.7 17.7Q22.9 18.3 22.9 19.3Q22.9 20.1 23.4 20.8Q24 21.5 25.4 22.4L26.7 23.3Q28.1 24.2 29.1 25.1Q30.1 26 30.6 27.1Q31.1 28.2 31.1 29.6Q31.1 32.2 29.4 33.6Q27.7 35.1 24.6 35.1Q23.4 35.1 22.5 34.9Q21.5 34.7 20.8 34.4Q20 34.1 19.4 33.9L20.3 31.3Q21 31.8 22.1 32.3Q23.3 32.8 24.5 32.8Q25.6 32.8 26.2 32.4Q26.9 32.1 27.2 31.6Q27.5 31.1 27.5 30.5Q27.5 29.5 26.8 28.8Q26.2 28.1 24.7 27.1L23.4 26.3Q21.3 24.9 20.3 23.5Q19.3 22.1 19.3 20.1Q19.3 18.5 20.1 17.3Q20.9 16.1 22.4 15.5Q23.8 14.9 25.7 14.9Q28.2 14.9 30.3 15.7" fill="white"></path><path d="M41.1 31.6L50.9 31.6L50.9 34.8L36.8 34.8L36.8 32.8Q39.7 30.3 42.6 27.1Q44.4 25.2 45.3 23.7Q46.2 22.1 46.2 20.5Q46.2 19.5 45.8 18.8Q45.4 18.2 44.8 17.8Q44.2 17.5 43.6 17.3Q43 17.2 42.6 17.2Q41.2 17.2 40.2 17.5Q39.2 17.8 38.7 18.1L37.9 15.9Q38.8 15.4 40.1 15.2Q41.3 14.9 43.5 14.9Q45.7 14.9 47.2 15.6Q48.7 16.2 49.5 17.4Q50.3 18.5 50.3 19.9Q50.3 21.5 49.5 23Q48.7 24.5 46.9 26.3Q44.8 28.4 41.1 31.6M53.4 27.3L62.7 15.2L65.1 15.2L65.1 27L67.5 27L67.5 29.3L65.1 29.3L65.1 34.8L61.5 34.8L61.5 29.3L53.4 29.3L53.4 27.3M61.5 27L61.5 20L56.2 27" fill="white"></path></g></g></svg>