<svg xmlns="http://www.w3.org/2000/svg" aria-hidden="true" fill="none" focusable="false" height="54" viewBox="0 0 180.984126984127 54" width="180.984126984127"><g><g transform="translate(2 2) scale(0.3968253968253968)"><path d="M223 0H34.825c-13.992 0-21.925 13.52-24.028 17.671C3.636 31.809 0 47.055 0 63s3.636 31.2 10.797 45.329C12.9 112.48 20.833 126 34.825 126H223" fill="none" stroke="white" stroke-linecap="butt" stroke-linejoin="round" stroke-width="10.08"></path><path d="M223 126H34.825c-13.992 0-21.925-13.52-24.028-17.671C3.636 94.191 0 78.945 0 63s3.636-31.2 10.797-45.34C12.9 13.52 20.843 0 34.825 0H223v126" fill="#FF9E18" fill-rule="evenodd"></path></g><g transform="translate(90.4920634920635 2) scale(0.3968253968253968)"><path d="M0 0h188.177c13.981 0 21.923 13.52 24.027 17.66C219.364 31.8 223 47.056 223 63s-3.636 31.2-10.796 45.329C210.1 112.47 202.168 126 188.177 126H0" fill="none" stroke="white" stroke-linecap="butt" stroke-linejoin="round" stroke-width="10.08"></path><path d="M0 0h188.177c13.981 0 21.923 13.52 24.027 17.66C219.364 31.8 223 47.056 223 63s-3.636 31.2-10.796 45.329C210.1 112.47 202.168 126 188.177 126H0z" fill="#005DA6" fill-rule="evenodd"></path></g></g><g><g transform="translate(14.625914558531747 2)"><path d="M14.9 15.8L14.1 18.2Q13.5 17.9 12.6 17.6Q11.7 17.2 10.6 17.2Q8.9 17.2 7.8 18.3Q6.6 19.3 6.1 21.1Q5.5 22.8 5.5 25Q5.5 28.6 6.8 30.7Q8.1 32.7 10.4 32.7Q11.1 32.7 11.9 32.5Q12.6 32.3 13.2 32.1Q13.8 31.8 14.1 31.6L14.9 34Q14 34.5 12.7 34.8Q11.4 35.1 9.6 35.1Q7.3 35.1 5.7 34.3Q4.1 33.5 3.1 32.1Q2 30.7 1.5 28.8Q1.1 27 1.1 25.1Q1.1 22.2 2.1 19.9Q3.2 17.6 5.2 16.2Q7.2 14.9 10.1 14.9Q12.9 14.9 14.9 15.8M29.6 15.8L28.9 18.2Q28.3 17.9 27.4 17.6Q26.4 17.2 25.4 17.2Q23.7 17.2 22.5 18.3Q21.4 19.3 20.8 21.1Q20.2 22.8 20.2 25Q20.2 28.6 21.6 30.7Q22.9 32.7 25.1 32.7Q25.9 32.7 26.6 32.5Q27.3 32.3 27.9 32.1Q28.5 31.8 28.9 31.6L29.7 34Q28.8 34.5 27.4 34.8Q26.1 35.1 24.3 35.1Q22.1 35.1 20.5 34.3Q18.8 33.5 17.8 32.1Q16.8 30.7 16.3 28.8Q15.8 27 15.8 25.1Q15.8 22.2 16.9 19.9Q17.9 17.6 19.9 16.2Q22 14.9 24.9 14.9Q27.6 14.9 29.6 15.8" fill="#231F20"></path><path d="M34.3 19.2L41.4 15.2L43.8 15.2L43.8 34.8L40.1 34.8L40.1 18.2L35.3 21L34.3 19.2M48.3 25.1Q48.3 24.1 48.4 22.7Q48.5 21.4 48.9 20Q49.3 18.7 50.1 17.5Q50.9 16.3 52.1 15.6Q53.4 14.9 55.3 14.9Q57 14.9 58.2 15.5Q59.4 16.2 60.1 17.3Q60.9 18.3 61.3 19.6Q61.7 20.9 61.8 22.3Q61.9 23.6 61.9 24.7Q61.9 26 61.8 27.4Q61.6 28.8 61.2 30.2Q60.8 31.6 60.1 32.7Q59.3 33.8 58.1 34.4Q56.8 35.1 55 35.1Q53.2 35.1 52 34.4Q50.8 33.7 50 32.6Q49.3 31.4 48.9 30.1Q48.5 28.7 48.4 27.4Q48.3 26.1 48.3 25.1M52.2 25Q52.2 26.7 52.3 28.2Q52.4 29.7 52.7 30.8Q53 31.9 53.5 32.5Q54.1 33.1 55.1 33.1Q56.3 33.1 56.9 32.2Q57.5 31.2 57.7 29.4Q58 27.5 58 25Q58 20.5 57.4 18.7Q56.8 16.8 55.2 16.8Q54.2 16.8 53.6 17.5Q53 18.1 52.7 19.3Q52.4 20.4 52.3 21.9Q52.2 23.4 52.2 25" fill="#231F20"></path></g><g transform="translate(101.36797805059524 2)"><path d="M7.5 17.4L6.3 17.4L6.3 32.7L7.3 32.7Q8 32.7 8.8 32.6Q9.6 32.5 10.3 32.1Q11 31.7 11.5 30.8Q12.1 29.9 12.4 28.4Q12.8 26.9 12.8 24.5Q12.8 22.4 12.5 21.1Q12.2 19.7 11.7 19Q11.1 18.2 10.4 17.9Q9.8 17.5 9 17.5Q8.2 17.4 7.5 17.4M6.5 34.8L2.3 34.8L2.3 20.8Q2.3 20 3.2 18.9Q4.1 17.8 5.5 17.5L5.5 17.4L1.9 17.4L1.7 15.2L7 15.2Q8.3 15.2 9.6 15.2Q10.9 15.3 12.1 15.7Q13.3 16.1 14.4 17.1Q15.6 18.2 16.2 19.6Q16.7 21 16.9 22.3Q17 23.6 17 24.4Q17 26 16.7 27.8Q16.3 29.6 15.3 31.2Q14.3 32.7 12.5 33.7Q11.2 34.4 9.8 34.6Q8.3 34.8 6.5 34.8M25.6 34.8L21.6 34.8L21.6 21Q21.6 20.2 22.5 19.1Q23.4 18 24.8 17.7L24.8 17.6L16.6 17.6L16.4 15.2L30.7 15.2L30.7 17.6L25.6 17.6" fill="white"></path><path d="M38.7 31.6L48.4 31.6L48.4 34.8L34.4 34.8L34.4 32.8Q37.3 30.3 40.2 27.1Q41.9 25.3 42.9 23.7Q43.8 22.1 43.8 20.5Q43.8 19.5 43.4 18.8Q43 18.2 42.4 17.8Q41.8 17.5 41.2 17.4Q40.6 17.2 40.2 17.2Q38.8 17.2 37.8 17.5Q36.8 17.8 36.3 18.1L35.5 15.9Q36.3 15.5 37.6 15.2Q38.9 14.9 41.1 14.9Q43.3 14.9 44.8 15.6Q46.3 16.2 47.1 17.4Q47.9 18.5 47.9 19.9Q47.9 21.5 47.1 23Q46.3 24.5 44.4 26.3Q42.4 28.4 38.7 31.6M64.6 15.9L63.8 18.1Q63.3 17.8 62.4 17.5Q61.5 17.2 60.5 17.2Q58.9 17.2 57.9 18Q56.9 18.9 56.4 20.6Q55.9 22.2 55.9 24.4Q55.9 24.7 55.9 24.9Q56.4 23.9 57.2 23.4Q57.9 22.9 58.7 22.7Q59.5 22.5 60.1 22.5Q61.5 22.5 62.8 23.2Q64 23.9 64.8 25.2Q65.6 26.5 65.6 28.5Q65.6 30.4 64.8 31.9Q64 33.4 62.5 34.2Q61.1 35.1 59 35.1Q57.3 35.1 56.1 34.5Q54.8 33.9 54 32.9Q53.2 31.9 52.7 30.6Q52.3 29.4 52.1 28Q51.9 26.6 51.9 25.4Q51.9 21.9 53 19.6Q54.1 17.3 56 16.1Q57.9 14.9 60.2 14.9Q61.3 14.9 62.1 15.1Q63 15.2 63.6 15.5Q64.2 15.7 64.6 15.9M56.2 29Q56.2 29.7 56.3 30.4Q56.4 31.1 56.7 31.8Q57 32.4 57.6 32.8Q58.1 33.1 58.9 33.1Q59.9 33.1 60.4 32.7Q61 32.3 61.3 31.6Q61.5 30.9 61.6 30.2Q61.8 29.4 61.8 28.8Q61.8 27.3 61.4 26.4Q61 25.5 60.3 25.1Q59.7 24.7 59 24.7Q57.6 24.7 56.9 25.9Q56.2 27 56.2 29" fill="white"></path></g></g></svg>