<svg xmlns="http://www.w3.org/2000/svg" aria-hidden="true" fill="none" focusable="false" height="54" viewBox="0 0 180.984126984127 54" width="180.984126984127"><g><g transform="translate(2 2) scale(0.3968253968253968)"><path d="M223 0H34.825c-13.992 0-21.925 13.52-24.028 17.671C3.636 31.809 0 47.055 0 63s3.636 31.2 10.797 45.329C12.9 112.48 20.833 126 34.825 126H223" fill="none" stroke="white" stroke-linecap="butt" stroke-linejoin="round" stroke-width="10.08"></path><path d="M223 126H34.825c-13.992 0-21.925-13.52-24.028-17.671C3.636 94.191 0 78.945 0 63s3.636-31.2 10.797-45.34C12.9 13.52 20.843 0 34.825 0H223v126" fill="#FF9E18" fill-rule="evenodd"></path></g><g transform="translate(90.4920634920635 2) scale(0.3968253968253968)"><path d="M0 0h188.177c13.981 0 21.923 13.52 24.027 17.66C219.364 31.8 223 47.056 223 63s-3.636 31.2-10.796 45.329C210.1 112.47 202.168 126 188.177 126H0" fill="none" stroke="white" stroke-linecap="butt" stroke-linejoin="round" stroke-width="10.08"></path><path d="M0 0h188.177c13.981 0 21.923 13.52 24.027 17.66C219.364 31.8 223 47.056 223 63s-3.636 31.2-10.796 45.329C210.1 112.47 202.168 126 188.177 126H0z" fill="#9E28B5" fill-rule="evenodd"></path></g></g><g><g transform="translate(15.808531746031747 2)"><path d="M14.9 15.8L14.1 18.2Q13.5 17.9 12.6 17.6Q11.7 17.2 10.6 17.2Q8.9 17.2 7.8 18.3Q6.6 19.3 6.1 21.1Q5.5 22.8 5.5 25Q5.5 28.6 6.8 30.7Q8.1 32.7 10.4 32.7Q11.1 32.7 11.9 32.5Q12.6 32.3 13.2 32.1Q13.8 31.8 14.1 31.6L14.9 34Q14 34.5 12.7 34.8Q11.4 35.1 9.6 35.1Q7.3 35.1 5.7 34.3Q4.1 33.5 3.1 32.1Q2 30.7 1.5 28.8Q1.1 27 1.1 25.1Q1.1 22.2 2.1 19.9Q3.2 17.6 5.2 16.2Q7.2 14.9 10.1 14.9Q12.9 14.9 14.9 15.8M29.6 15.8L28.9 18.2Q28.3 17.9 27.4 17.6Q26.4 17.2 25.4 17.2Q23.7 17.2 22.5 18.3Q21.4 19.3 20.8 21.1Q20.2 22.8 20.2 25Q20.2 28.6 21.6 30.7Q22.9 32.7 25.1 32.7Q25.9 32.7 26.6 32.5Q27.3 32.3 27.9 32.1Q28.5 31.8 28.9 31.6L29.7 34Q28.8 34.5 27.4 34.8Q26.1 35.1 24.3 35.1Q22.1 35.1 20.5 34.3Q18.8 33.5 17.8 32.1Q16.8 30.7 16.3 28.8Q15.8 27 15.8 25.1Q15.8 22.2 16.9 19.9Q17.9 17.6 19.9 16.2Q22 14.9 24.9 14.9Q27.6 14.9 29.6 15.8" fill="#231F20"></path><path d="M34.3 19.2L41.4 15.2L43.8 15.2L43.8 34.8L40.1 34.8L40.1 18.2L35.3 21L34.3 19.2M59.9 29.2Q59.9 30.9 59 32.2Q58 33.5 56.3 34.3Q54.6 35.1 52.3 35.1Q50.4 35.1 49 34.7Q47.7 34.4 46.8 33.9L47.5 31.6Q48.1 31.9 49.2 32.3Q50.4 32.7 51.9 32.7Q53.3 32.7 54.2 32.2Q55 31.7 55.5 30.9Q55.9 30.1 55.9 29.1Q55.9 28 55.3 27.1Q54.7 26.2 53.5 25.7Q52.9 25.5 52.1 25.5Q51.2 25.4 50.5 25.4L49.5 25.4L49.5 23.5L50.3 23.5Q51.2 23.5 52 23.4Q52.8 23.3 53.5 22.8Q54.1 22.5 54.5 21.8Q55 21.1 55 20.2Q55 18.7 54.1 18Q53.2 17.2 51.6 17.2Q50.4 17.2 49.5 17.5Q48.6 17.8 48.1 18.1L47.2 15.9Q47.9 15.5 49.2 15.2Q50.4 14.9 52.4 14.9Q55.4 14.9 57.1 16.1Q58.9 17.3 58.9 19.5Q58.9 20.8 58.2 21.7Q57.6 22.6 56.7 23.2Q55.7 23.9 54.6 24.2Q56.1 24.4 57.3 25.1Q58.5 25.7 59.2 26.8Q59.9 27.8 59.9 29.2" fill="#231F20"></path></g><g transform="translate(102.37286086309524 2)"><path d="M16.6 15.1L16.6 34.9L14.1 34.9L4.3 21.7L4.3 34.9L1.7 34.9L1.7 15.3L4.2 15.3L13.9 28.6L13.9 17.4Q13.9 17 14.3 16.5Q14.7 15.9 15.3 15.5Q15.9 15.1 16.6 15.1M31.9 34.9L20.2 34.9L20.2 21Q20.2 20.2 21.1 19.1Q22 18 23.4 17.7L23.4 17.6L19.8 17.6L19.6 15.3L31.8 15.3L31.8 17.7L24.2 17.7L24.2 23.6L31.3 23.6L31.3 26L24.2 26L24.2 32.5L31.9 32.5" fill="white"></path><path d="M37.3 19.3L44.4 15.3L46.8 15.3L46.8 35L43.1 35L43.1 18.3L38.3 21.1L37.3 19.3M53.7 31.7L63.4 31.7L63.4 35L49.3 35L49.3 33Q52.2 30.5 55.2 27.3Q56.9 25.4 57.8 23.8Q58.8 22.2 58.8 20.7Q58.8 19.6 58.4 19Q58 18.3 57.4 18Q56.8 17.6 56.2 17.5Q55.6 17.4 55.1 17.4Q53.8 17.4 52.8 17.7Q51.8 18 51.3 18.3L50.5 16Q51.3 15.6 52.6 15.3Q53.9 15 56.1 15Q58.3 15 59.8 15.7Q61.3 16.4 62.1 17.5Q62.9 18.6 62.9 20.1Q62.9 21.6 62.1 23.1Q61.2 24.6 59.4 26.5Q57.4 28.6 53.7 31.7" fill="white"></path></g></g></svg>