<svg xmlns="http://www.w3.org/2000/svg" aria-hidden="true" fill="none" focusable="false" height="54" viewBox="0 0 180.984126984127 54" width="180.984126984127"><g><g transform="translate(2 2) scale(0.3968253968253968)"><path d="M223 0H34.825c-13.992 0-21.925 13.52-24.028 17.671C3.636 31.809 0 47.055 0 63s3.636 31.2 10.797 45.329C12.9 112.48 20.833 126 34.825 126H223" fill="none" stroke="white" stroke-linecap="butt" stroke-linejoin="round" stroke-width="10.08"></path><path d="M223 126H34.825c-13.992 0-21.925-13.52-24.028-17.671C3.636 94.191 0 78.945 0 63s3.636-31.2 10.797-45.34C12.9 13.52 20.843 0 34.825 0H223v126" fill="#FF9E18" fill-rule="evenodd"></path></g><g transform="translate(90.4920634920635 2) scale(0.3968253968253968)"><path d="M0 0h188.177c13.981 0 21.923 13.52 24.027 17.66C219.364 31.8 223 47.056 223 63s-3.636 31.2-10.796 45.329C210.1 112.47 202.168 126 188.177 126H0" fill="none" stroke="white" stroke-linecap="butt" stroke-linejoin="round" stroke-width="10.08"></path><path d="M0 0h188.177c13.981 0 21.923 13.52 24.027 17.66C219.364 31.8 223 47.056 223 63s-3.636 31.2-10.796 45.329C210.1 112.47 202.168 126 188.177 126H0z" fill="#E1251B" fill-rule="evenodd"></path></g></g><g><g transform="translate(15.405211433531747 2)"><path d="M14.9 15.8L14.1 18.2Q13.5 17.9 12.6 17.6Q11.7 17.2 10.6 17.2Q8.9 17.2 7.8 18.3Q6.6 19.3 6.1 21.1Q5.5 22.8 5.5 25Q5.5 28.6 6.8 30.7Q8.1 32.7 10.4 32.7Q11.1 32.7 11.9 32.5Q12.6 32.3 13.2 32.1Q13.8 31.8 14.1 31.6L14.9 34Q14 34.5 12.7 34.8Q11.4 35.1 9.6 35.1Q7.3 35.1 5.7 34.3Q4.1 33.5 3.1 32.1Q2 30.7 1.5 28.8Q1.1 27 1.1 25.1Q1.1 22.2 2.1 19.9Q3.2 17.6 5.2 16.2Q7.2 14.9 10.1 14.9Q12.9 14.9 14.9 15.8M29.6 15.8L28.9 18.2Q28.3 17.9 27.4 17.6Q26.4 17.2 25.4 17.2Q23.7 17.2 22.5 18.3Q21.4 19.3 20.8 21.1Q20.2 22.8 20.2 25Q20.2 28.6 21.6 30.7Q22.9 32.7 25.1 32.7Q25.9 32.7 26.6 32.5Q27.3 32.3 27.9 32.1Q28.5 31.8 28.9 31.6L29.7 34Q28.8 34.5 27.4 34.8Q26.1 35.1 24.3 35.1Q22.1 35.1 20.5 34.3Q18.8 33.5 17.8 32.1Q16.8 30.7 16.3 28.8Q15.8 27 15.8 25.1Q15.8 22.2 16.9 19.9Q17.9 17.6 19.9 16.2Q22 14.9 24.9 14.9Q27.6 14.9 29.6 15.8" fill="#231F20"></path><path d="M34.3 19.2L41.4 15.2L43.8 15.2L43.8 34.8L40.1 34.8L40.1 18.2L35.3 21L34.3 19.2M48.3 26.1L48.3 15.2L59.2 15.2L59.2 18.3L50.5 18.3L50.5 23.4Q51.4 23 52.2 22.9Q53 22.8 53.7 22.8Q55 22.8 56.2 23.2Q57.4 23.6 58.4 24.3Q59.3 25 59.9 26.1Q60.5 27.2 60.5 28.6Q60.5 29.9 60 31Q59.5 32.2 58.5 33.1Q57.6 34 56.1 34.6Q54.7 35.1 52.8 35.1Q51.6 35.1 50.6 34.9Q49.5 34.7 48.7 34.4Q48 34.2 47.4 33.9L48.2 31.6Q49 32 50 32.4Q51 32.7 52.5 32.7Q53.5 32.7 54.4 32.3Q55.4 32 55.9 31.1Q56.5 30.2 56.5 28.8Q56.5 27.7 56.1 27Q55.7 26.2 55.1 25.8Q54.5 25.3 53.7 25.2Q53 25 52.2 25Q51.2 25 50.5 25.2Q49.7 25.4 49.1 25.6Q48.6 25.9 48.3 26.1" fill="#231F20"></path></g><g transform="translate(103.26153273809524 2)"><path d="M16.6 15L16.6 34.8L14.1 34.8L4.3 21.5L4.3 34.8L1.7 34.8L1.7 15.1L4.2 15.1L13.9 28.4L13.9 17.3Q13.9 16.8 14.3 16.3Q14.7 15.8 15.3 15.4Q15.9 15 16.6 15M30.3 15.7L29.5 18Q28.8 17.7 27.8 17.4Q26.8 17.2 25.8 17.2Q24.4 17.2 23.7 17.7Q22.9 18.3 22.9 19.3Q22.9 20.1 23.4 20.8Q24 21.5 25.4 22.4L26.7 23.2Q28.1 24.2 29.1 25.1Q30.1 26 30.6 27.1Q31.1 28.2 31.1 29.6Q31.1 32.2 29.4 33.6Q27.7 35.1 24.6 35.1Q23.4 35.1 22.5 34.9Q21.5 34.7 20.8 34.4Q20 34.1 19.4 33.8L20.3 31.2Q21 31.8 22.1 32.3Q23.3 32.7 24.5 32.7Q25.6 32.7 26.2 32.4Q26.9 32.1 27.2 31.6Q27.5 31 27.5 30.5Q27.5 29.5 26.8 28.8Q26.2 28 24.7 27L23.4 26.2Q21.3 24.9 20.3 23.5Q19.3 22.1 19.3 20.1Q19.3 18.4 20.1 17.3Q20.9 16.1 22.4 15.5Q23.8 14.9 25.7 14.9Q28.2 14.9 30.3 15.7" fill="white"></path><path d="M36.5 19.1L43.6 15.1L46 15.1L46 34.8L42.3 34.8L42.3 18.1L37.5 21L36.5 19.1M48.7 18.4L48.7 15.1L62.5 15.1L62.5 17.1L53.7 34.8L50.9 34.8L59.3 18.4" fill="white"></path></g></g></svg>