<svg xmlns="http://www.w3.org/2000/svg" aria-hidden="true" fill="none" focusable="false" height="54" viewBox="0 0 180.984126984127 54" width="180.984126984127"><g><g transform="translate(2 2) scale(0.3968253968253968)"><path d="M223 0H34.825c-13.992 0-21.925 13.52-24.028 17.671C3.636 31.809 0 47.055 0 63s3.636 31.2 10.797 45.329C12.9 112.48 20.833 126 34.825 126H223" fill="none" stroke="white" stroke-linecap="butt" stroke-linejoin="round" stroke-width="10.08"></path><path d="M223 126H34.825c-13.992 0-21.925-13.52-24.028-17.671C3.636 94.191 0 78.945 0 63s3.636-31.2 10.797-45.34C12.9 13.52 20.843 0 34.825 0H223v126" fill="#FF9E18" fill-rule="evenodd"></path></g><g transform="translate(90.4920634920635 2) scale(0.3968253968253968)"><path d="M0 0h188.177c13.981 0 21.923 13.52 24.027 17.66C219.364 31.8 223 47.056 223 63s-3.636 31.2-10.796 45.329C210.1 112.47 202.168 126 188.177 126H0" fill="none" stroke="white" stroke-linecap="butt" stroke-linejoin="round" stroke-width="10.08"></path><path d="M0 0h188.177c13.981 0 21.923 13.52 24.027 17.66C219.364 31.8 223 47.056 223 63s-3.636 31.2-10.796 45.329C210.1 112.47 202.168 126 188.177 126H0z" fill="#9D5918" fill-rule="evenodd"></path></g></g><g><g transform="translate(15.856383308531747 2)"><path d="M14.9 15.8L14.1 18.2Q13.5 17.9 12.6 17.6Q11.7 17.2 10.6 17.2Q8.9 17.2 7.8 18.3Q6.6 19.3 6.1 21.1Q5.5 22.8 5.5 25Q5.5 28.6 6.8 30.7Q8.1 32.7 10.4 32.7Q11.1 32.7 11.9 32.5Q12.6 32.3 13.2 32.1Q13.8 31.8 14.1 31.6L14.9 34Q14 34.5 12.7 34.8Q11.4 35.1 9.6 35.1Q7.3 35.1 5.7 34.3Q4.1 33.5 3.1 32.1Q2 30.7 1.5 28.8Q1.1 27 1.1 25.1Q1.1 22.2 2.1 19.9Q3.2 17.6 5.2 16.2Q7.2 14.9 10.1 14.9Q12.9 14.9 14.9 15.8M29.6 15.8L28.9 18.2Q28.3 17.9 27.4 17.6Q26.4 17.2 25.4 17.2Q23.7 17.2 22.5 18.3Q21.4 19.3 20.8 21.1Q20.2 22.8 20.2 25Q20.2 28.6 21.6 30.7Q22.9 32.7 25.1 32.7Q25.9 32.7 26.6 32.5Q27.3 32.3 27.9 32.1Q28.5 31.8 28.9 31.6L29.7 34Q28.8 34.5 27.4 34.8Q26.1 35.1 24.3 35.1Q22.1 35.1 20.5 34.3Q18.8 33.5 17.8 32.1Q16.8 30.7 16.3 28.8Q15.8 27 15.8 25.1Q15.8 22.2 16.9 19.9Q17.9 17.6 19.9 16.2Q22 14.9 24.9 14.9Q27.6 14.9 29.6 15.8" fill="#231F20"></path><path d="M34.3 19.2L41.4 15.2L43.8 15.2L43.8 34.8L40.1 34.8L40.1 18.2L35.3 21L34.3 19.2M46.6 18.4L46.6 15.2L60.3 15.2L60.3 17.1L51.5 34.8L48.7 34.8L57.2 18.4" fill="#231F20"></path></g><g transform="translate(108.98321242559524 2)"><path d="M9.8 34.8L5.8 34.8L5.8 21Q5.8 20.2 6.7 19.1Q7.6 18 9 17.7L9 17.6L0.8 17.6L0.7 15.2L15 15.2L15 17.6L9.8 17.6L9.8 34.8M29.8 34.8L18 34.8L18 20.8Q18 20 18.9 19Q19.9 17.9 21.2 17.5L21.2 17.4L17.6 17.4L17.4 15.2L29.7 15.2L29.7 17.6L22 17.6L22 23.5L29.1 23.5L29.1 25.8L22 25.8L22 32.3L29.8 32.3" fill="white"></path><path d="M37.5 34.1L38.3 31.9Q38.9 32.3 39.8 32.6Q40.7 32.9 41.7 32.9Q43 32.9 43.8 32.3Q44.6 31.8 45.1 30.9Q45.6 30 45.9 29Q46.1 28 46.2 27Q46.3 26.1 46.3 25.4L46.3 25Q45.9 25.6 45.3 26.2Q44.7 26.8 43.9 27.2Q43.1 27.5 42.1 27.5Q40.6 27.5 39.3 26.9Q38.1 26.2 37.3 24.8Q36.5 23.4 36.5 21.5Q36.5 19.7 37.2 18.2Q38 16.7 39.5 15.8Q41 14.9 43.1 14.9Q44.9 14.9 46.1 15.5Q47.4 16 48.2 17Q49 18 49.5 19.1Q49.9 20.3 50.1 21.6Q50.3 22.9 50.3 24Q50.3 26.7 49.7 28.9Q49.1 31 47.8 32.6Q47 33.6 46 34.1Q45 34.7 44 34.9Q43 35.1 42.1 35.1Q40.7 35.1 39.5 34.8Q38.4 34.5 37.5 34.1M40.3 21Q40.3 22.1 40.6 23.1Q40.9 24.1 41.5 24.7Q42 25.3 43.1 25.3Q44 25.3 44.7 24.7Q45.3 24.2 45.6 23.2Q45.9 22.2 45.9 20.9Q45.9 19.8 45.6 18.8Q45.3 17.9 44.7 17.4Q44.1 16.8 43.2 16.8Q42.1 16.8 41.5 17.4Q40.9 18 40.6 19Q40.3 19.9 40.3 21" fill="white"></path></g></g></svg>