<svg xmlns="http://www.w3.org/2000/svg" aria-hidden="true" fill="none" focusable="false" height="54" viewBox="0 0 180.984126984127 54" width="180.984126984127"><g><g transform="translate(2 2) scale(0.3968253968253968)"><path d="M223 0H34.825c-13.992 0-21.925 13.52-24.028 17.671C3.636 31.809 0 47.055 0 63s3.636 31.2 10.797 45.329C12.9 112.48 20.833 126 34.825 126H223" fill="none" stroke="white" stroke-linecap="butt" stroke-linejoin="round" stroke-width="10.08"></path><path d="M223 126H34.825c-13.992 0-21.925-13.52-24.028-17.671C3.636 94.191 0 78.945 0 63s3.636-31.2 10.797-45.34C12.9 13.52 20.843 0 34.825 0H223v126" fill="#FF9E18" fill-rule="evenodd"></path></g><g transform="translate(90.4920634920635 2) scale(0.3968253968253968)"><path d="M0 0h188.177c13.981 0 21.923 13.52 24.027 17.66C219.364 31.8 223 47.056 223 63s-3.636 31.2-10.796 45.329C210.1 112.47 202.168 126 188.177 126H0" fill="none" stroke="white" stroke-linecap="butt" stroke-linejoin="round" stroke-width="10.08"></path><path d="M0 0h188.177c13.981 0 21.923 13.52 24.027 17.66C219.364 31.8 223 47.056 223 63s-3.636 31.2-10.796 45.329C210.1 112.47 202.168 126 188.177 126H0z" fill="#005DA6" fill-rule="evenodd"></path></g></g><g><g transform="translate(15.056578621031747 2)"><path d="M14.9 15.8L14.1 18.2Q13.5 17.9 12.6 17.6Q11.7 17.2 10.6 17.2Q8.9 17.2 7.8 18.3Q6.6 19.3 6.1 21.1Q5.5 22.8 5.5 25Q5.5 28.6 6.8 30.7Q8.1 32.7 10.4 32.7Q11.1 32.7 11.9 32.5Q12.6 32.3 13.2 32.1Q13.8 31.8 14.1 31.6L14.9 34Q14 34.5 12.7 34.8Q11.4 35.1 9.6 35.1Q7.3 35.1 5.7 34.3Q4.1 33.5 3.1 32.1Q2 30.7 1.5 28.8Q1.1 27 1.1 25.1Q1.1 22.2 2.1 19.9Q3.2 17.6 5.2 16.2Q7.2 14.9 10.1 14.9Q12.9 14.9 14.9 15.8M29.6 15.8L28.9 18.2Q28.3 17.9 27.4 17.6Q26.4 17.2 25.4 17.2Q23.7 17.2 22.5 18.3Q21.4 19.3 20.8 21.1Q20.2 22.8 20.2 25Q20.2 28.6 21.6 30.7Q22.9 32.7 25.1 32.7Q25.9 32.7 26.6 32.5Q27.3 32.3 27.9 32.1Q28.5 31.8 28.9 31.6L29.7 34Q28.8 34.5 27.4 34.8Q26.1 35.1 24.3 35.1Q22.1 35.1 20.5 34.3Q18.8 33.5 17.8 32.1Q16.8 30.7 16.3 28.8Q15.8 27 15.8 25.1Q15.8 22.2 16.9 19.9Q17.9 17.6 19.9 16.2Q22 14.9 24.9 14.9Q27.6 14.9 29.6 15.8" fill="#231F20"></path><path d="M34.3 19.2L41.4 15.2L43.8 15.2L43.8 34.8L40.1 34.8L40.1 18.2L35.3 21L34.3 19.2M48.4 34.1L49.2 31.9Q49.8 32.3 50.7 32.6Q51.6 32.9 52.6 32.9Q53.9 32.9 54.7 32.3Q55.5 31.8 56 30.9Q56.5 30 56.8 29Q57 28 57.1 27Q57.1 26.1 57.1 25.4L57.1 25Q56.7 25.6 56.2 26.2Q55.6 26.8 54.8 27.2Q54 27.5 52.9 27.5Q51.5 27.5 50.2 26.9Q48.9 26.2 48.1 24.8Q47.3 23.4 47.3 21.5Q47.3 19.7 48.1 18.2Q48.9 16.7 50.4 15.8Q51.9 14.9 54 14.9Q55.8 14.9 57 15.5Q58.3 16 59.1 17Q59.9 18 60.3 19.1Q60.8 20.3 61 21.6Q61.2 22.9 61.2 24Q61.2 26.7 60.6 28.9Q60 31 58.7 32.6Q57.8 33.6 56.8 34.1Q55.8 34.7 54.8 34.9Q53.8 35.1 53 35.1Q51.6 35.1 50.4 34.8Q49.2 34.5 48.4 34.1M51.2 21Q51.2 22.1 51.5 23.1Q51.7 24.1 52.3 24.7Q52.9 25.3 53.9 25.3Q54.9 25.3 55.5 24.7Q56.2 24.2 56.5 23.2Q56.8 22.2 56.8 20.9Q56.8 19.8 56.5 18.8Q56.2 17.9 55.6 17.4Q55 16.8 54 16.8Q53 16.8 52.4 17.4Q51.8 18 51.5 19Q51.2 19.9 51.2 21" fill="#231F20"></path></g><g transform="translate(109.53692336309524 2)"><path d="M7.5 17.4L6.3 17.4L6.3 32.7L7.3 32.7Q8 32.7 8.8 32.6Q9.6 32.5 10.3 32.1Q11 31.7 11.5 30.8Q12.1 29.9 12.4 28.4Q12.8 26.9 12.8 24.5Q12.8 22.4 12.5 21.1Q12.2 19.7 11.7 19Q11.1 18.2 10.4 17.9Q9.8 17.5 9 17.5Q8.2 17.4 7.5 17.4M6.5 34.8L2.3 34.8L2.3 20.8Q2.3 20 3.2 18.9Q4.1 17.8 5.5 17.5L5.5 17.4L1.9 17.4L1.7 15.2L7 15.2Q8.3 15.2 9.6 15.2Q10.9 15.3 12.1 15.7Q13.3 16.1 14.4 17.1Q15.6 18.2 16.2 19.6Q16.7 21 16.9 22.3Q17 23.6 17 24.4Q17 26 16.7 27.8Q16.3 29.6 15.3 31.2Q14.3 32.7 12.5 33.7Q11.2 34.4 9.8 34.6Q8.3 34.8 6.5 34.8M25.6 34.8L21.6 34.8L21.6 21Q21.6 20.2 22.5 19.1Q23.4 18 24.8 17.7L24.8 17.6L16.6 17.6L16.4 15.2L30.7 15.2L30.7 17.6L25.6 17.6" fill="white"></path><path d="M36.4 34.1L37.2 31.9Q37.8 32.3 38.7 32.6Q39.6 32.9 40.6 32.9Q41.9 32.9 42.7 32.3Q43.5 31.8 44 30.9Q44.5 30 44.8 29Q45 28 45.1 27Q45.2 26.1 45.2 25.4L45.2 25Q44.8 25.6 44.2 26.2Q43.6 26.8 42.8 27.2Q42 27.5 41 27.5Q39.5 27.5 38.2 26.9Q36.9 26.2 36.2 24.8Q35.4 23.4 35.4 21.5Q35.4 19.7 36.1 18.2Q36.9 16.7 38.4 15.8Q39.9 14.9 42 14.9Q43.8 14.9 45 15.5Q46.3 16 47.1 17Q47.9 18 48.4 19.1Q48.8 20.3 49 21.6Q49.2 22.9 49.2 24Q49.2 26.7 48.6 28.9Q48 31 46.7 32.6Q45.8 33.6 44.9 34.1Q43.9 34.7 42.9 34.9Q41.9 35.1 41 35.1Q39.6 35.1 38.4 34.8Q37.3 34.5 36.4 34.1M39.2 21Q39.2 22.1 39.5 23.1Q39.8 24.1 40.3 24.7Q40.9 25.3 42 25.3Q42.9 25.3 43.6 24.7Q44.2 24.2 44.5 23.2Q44.8 22.2 44.8 20.9Q44.8 19.8 44.5 18.8Q44.2 17.9 43.6 17.4Q43 16.8 42.1 16.8Q41 16.8 40.4 17.4Q39.8 18 39.5 19Q39.2 19.9 39.2 21" fill="white"></path></g></g></svg>