<svg xmlns="http://www.w3.org/2000/svg" aria-hidden="true" fill="none" focusable="false" height="54" viewBox="0 0 180.984126984127 54" width="180.984126984127"><g><g transform="translate(2 2) scale(0.3968253968253968)"><path d="M223 0H34.825c-13.992 0-21.925 13.52-24.028 17.671C3.636 31.809 0 47.055 0 63s3.636 31.2 10.797 45.329C12.9 112.48 20.833 126 34.825 126H223" fill="none" stroke="white" stroke-linecap="butt" stroke-linejoin="round" stroke-width="10.08"></path><path d="M223 126H34.825c-13.992 0-21.925-13.52-24.028-17.671C3.636 94.191 0 78.945 0 63s3.636-31.2 10.797-45.34C12.9 13.52 20.843 0 34.825 0H223v126" fill="#FF9E18" fill-rule="evenodd"></path></g><g transform="translate(90.4920634920635 2) scale(0.3968253968253968)"><path d="M0 0h188.177c13.981 0 21.923 13.52 24.027 17.66C219.364 31.8 223 47.056 223 63s-3.636 31.2-10.796 45.329C210.1 112.47 202.168 126 188.177 126H0" fill="none" stroke="white" stroke-linecap="butt" stroke-linejoin="round" stroke-width="10.08"></path><path d="M0 0h188.177c13.981 0 21.923 13.52 24.027 17.66C219.364 31.8 223 47.056 223 63s-3.636 31.2-10.796 45.329C210.1 112.47 202.168 126 188.177 126H0z" fill="#555555" fill-rule="evenodd"></path></g></g><g><g transform="translate(12.657164558531747 2)"><path d="M14.9 15.8L14.1 18.2Q13.5 17.9 12.6 17.6Q11.7 17.2 10.6 17.2Q8.9 17.2 7.8 18.3Q6.6 19.3 6.1 21.1Q5.5 22.8 5.5 25Q5.5 28.6 6.8 30.7Q8.1 32.7 10.4 32.7Q11.1 32.7 11.9 32.5Q12.6 32.3 13.2 32.1Q13.8 31.8 14.1 31.6L14.9 34Q14 34.5 12.7 34.8Q11.4 35.1 9.6 35.1Q7.3 35.1 5.7 34.3Q4.1 33.5 3.1 32.1Q2 30.7 1.5 28.8Q1.1 27 1.1 25.1Q1.1 22.2 2.1 19.9Q3.2 17.6 5.2 16.2Q7.2 14.9 10.1 14.9Q12.9 14.9 14.9 15.8M29.6 15.8L28.9 18.2Q28.3 17.9 27.4 17.6Q26.4 17.2 25.4 17.2Q23.7 17.2 22.5 18.3Q21.4 19.3 20.8 21.1Q20.2 22.8 20.2 25Q20.2 28.6 21.6 30.7Q22.9 32.7 25.1 32.7Q25.9 32.7 26.6 32.5Q27.3 32.3 27.9 32.1Q28.5 31.8 28.9 31.6L29.7 34Q28.8 34.5 27.4 34.8Q26.1 35.1 24.3 35.1Q22.1 35.1 20.5 34.3Q18.8 33.5 17.8 32.1Q16.8 30.7 16.3 28.8Q15.8 27 15.8 25.1Q15.8 22.2 16.9 19.9Q17.9 17.6 19.9 16.2Q22 14.9 24.9 14.9Q27.6 14.9 29.6 15.8" fill="#231F20"></path><path d="M39 31.6L48.7 31.6L48.7 34.8L34.6 34.8L34.6 32.8Q37.5 30.3 40.4 27.1Q42.2 25.3 43.1 23.7Q44 22.1 44 20.5Q44 19.5 43.6 18.8Q43.2 18.2 42.6 17.8Q42 17.5 41.4 17.4Q40.8 17.2 40.4 17.2Q39.1 17.2 38.1 17.5Q37.1 17.8 36.6 18.1L35.8 15.9Q36.6 15.5 37.9 15.2Q39.2 14.9 41.4 14.9Q43.5 14.9 45 15.6Q46.5 16.2 47.3 17.4Q48.1 18.5 48.1 19.9Q48.1 21.5 47.3 23Q46.5 24.5 44.7 26.3Q42.6 28.4 39 31.6M52.2 25.1Q52.2 24.1 52.4 22.7Q52.5 21.4 52.9 20Q53.3 18.7 54 17.5Q54.8 16.3 56.1 15.6Q57.3 14.9 59.2 14.9Q61 14.9 62.2 15.5Q63.3 16.2 64.1 17.3Q64.8 18.3 65.2 19.6Q65.6 20.9 65.7 22.3Q65.9 23.6 65.9 24.7Q65.9 26 65.7 27.4Q65.6 28.8 65.2 30.2Q64.8 31.6 64 32.7Q63.2 33.8 62 34.4Q60.8 35.1 58.9 35.1Q57.1 35.1 55.9 34.4Q54.7 33.7 54 32.6Q53.2 31.4 52.9 30.1Q52.5 28.7 52.4 27.4Q52.2 26.1 52.2 25.1M56.2 25Q56.2 26.7 56.3 28.2Q56.3 29.7 56.6 30.8Q56.9 31.9 57.5 32.5Q58.1 33.1 59 33.1Q60.2 33.1 60.8 32.2Q61.4 31.2 61.7 29.4Q61.9 27.5 61.9 25Q61.9 20.5 61.3 18.7Q60.7 16.8 59.1 16.8Q58.1 16.8 57.5 17.5Q56.9 18.1 56.6 19.3Q56.3 20.4 56.3 21.9Q56.2 23.4 56.2 25" fill="#231F20"></path></g><g transform="translate(107.16485305059524 2)"><path d="M14.9 15.8L14.1 18.2Q13.5 17.9 12.6 17.6Q11.7 17.2 10.6 17.2Q8.9 17.2 7.8 18.3Q6.6 19.3 6.1 21.1Q5.5 22.8 5.5 25Q5.5 28.6 6.8 30.7Q8.1 32.7 10.4 32.7Q11.1 32.7 11.9 32.5Q12.6 32.3 13.2 32.1Q13.8 31.8 14.1 31.6L14.9 34Q14 34.5 12.7 34.8Q11.4 35.1 9.6 35.1Q7.3 35.1 5.7 34.3Q4.1 33.5 3.1 32.1Q2 30.7 1.5 28.8Q1.1 27 1.1 25.1Q1.1 22.2 2.1 19.9Q3.2 17.6 5.2 16.2Q7.2 14.9 10.1 14.9Q12.9 14.9 14.9 15.8M15.9 25Q15.9 22.4 16.6 20.5Q17.3 18.6 18.5 17.4Q19.7 16.1 21.3 15.5Q22.8 14.9 24.6 14.9Q26.1 14.9 27.6 15.3Q29.1 15.8 30.3 16.9Q31.5 18 32.3 19.9Q33 21.8 33 24.7Q33 28.2 32 30.5Q30.9 32.8 28.9 33.9Q27 35.1 24.3 35.1Q21.8 35.1 19.9 33.9Q18 32.8 16.9 30.5Q15.9 28.3 15.9 25M20.2 25.1Q20.2 27.9 20.8 29.6Q21.4 31.4 22.3 32.2Q23.2 33 24.4 33Q25.2 33 26 32.6Q26.8 32.2 27.4 31.3Q27.9 30.4 28.3 28.8Q28.6 27.2 28.6 25Q28.6 23.6 28.5 22.2Q28.4 20.8 27.9 19.6Q27.5 18.4 26.7 17.7Q25.9 16.9 24.6 16.9Q23.2 16.9 22.2 17.8Q21.3 18.6 20.8 20.5Q20.2 22.3 20.2 25.1" fill="white"></path><path d="M53.4 19.8Q53.4 21.5 52.3 22.7Q51.2 24 49.4 24.5Q49.8 24.6 50.3 24.8Q50.9 25 51.5 25.3Q52.1 25.6 52.7 26.1Q53.2 26.7 53.6 27.5Q53.9 28.3 53.9 29.5Q53.9 30.6 53.5 31.6Q53.1 32.6 52.2 33.4Q51.4 34.2 50 34.6Q48.7 35.1 46.8 35.1Q44.9 35.1 43.6 34.6Q42.2 34.2 41.4 33.4Q40.6 32.6 40.2 31.6Q39.9 30.7 39.9 29.7Q39.9 28.6 40.3 27.7Q40.7 26.8 41.4 26.2Q42.1 25.6 42.9 25.2Q43.6 24.8 44.4 24.5Q42.9 24.1 42 23.4Q41.1 22.6 40.8 21.6Q40.4 20.7 40.4 19.9Q40.4 19 40.8 18.1Q41.2 17.2 42 16.5Q42.8 15.7 44 15.3Q45.2 14.9 47 14.9Q48.8 14.9 50 15.3Q51.3 15.8 52 16.5Q52.8 17.3 53.1 18.1Q53.4 19 53.4 19.8M44.1 20.2Q44.1 21.8 44.9 22.7Q45.6 23.6 46.9 23.6Q48.1 23.6 48.9 22.7Q49.7 21.8 49.7 20.2Q49.7 19.3 49.4 18.5Q49 17.7 48.4 17.3Q47.8 16.9 46.9 16.9Q45.9 16.9 45.3 17.4Q44.7 17.9 44.4 18.6Q44.1 19.4 44.1 20.2M43.9 29.4Q43.9 30.6 44.3 31.5Q44.7 32.3 45.4 32.8Q46.1 33.2 46.9 33.2Q47.9 33.2 48.6 32.7Q49.3 32.2 49.6 31.3Q50 30.4 50 29.3Q50 28.1 49.5 27.3Q49.1 26.4 48.4 26Q47.7 25.6 46.9 25.6Q45.6 25.6 44.7 26.6Q43.9 27.5 43.9 29.4" fill="white"></path></g></g></svg>