<svg xmlns="http://www.w3.org/2000/svg" aria-hidden="true" fill="none" focusable="false" height="54" viewBox="0 0 269.4761904761905 54" width="269.4761904761905"><g><g transform="translate(2 2) scale(0.3968253968253968)"><path d="M223 0H34.825c-13.992 0-21.925 13.52-24.028 17.671C3.636 31.809 0 47.055 0 63s3.636 31.2 10.797 45.329C12.9 112.48 20.833 126 34.825 126H223" fill="none" stroke="white" stroke-linecap="butt" stroke-linejoin="round" stroke-width="10.08"></path><path d="M223 126H34.825c-13.992 0-21.925-13.52-24.028-17.671C3.636 94.191 0 78.945 0 63s3.636-31.2 10.797-45.34C12.9 13.52 20.843 0 34.825 0H223v126" fill="#FF9E18" fill-rule="evenodd"></path></g><g transform="translate(90.4920634920635 2) scale(0.3968253968253968)"><path d="M0 0H223M0 126H223" fill="none" stroke="white" stroke-linecap="butt" stroke-linejoin="round" stroke-width="10.08"></path><path d="M0 63V0h223v126H0z" fill="#00953B" fill-rule="evenodd"></path></g><g transform="translate(178.984126984127 2) scale(0.3968253968253968)"><path d="M0 0h188.177c13.981 0 21.923 13.52 24.027 17.66C219.364 31.8 223 47.056 223 63s-3.636 31.2-10.796 45.329C210.1 112.47 202.168 126 188.177 126H0" fill="none" stroke="white" stroke-linecap="butt" stroke-linejoin="round" stroke-width="10.08"></path><path d="M0 0h188.177c13.981 0 21.923 13.52 24.027 17.66C219.364 31.8 223 47.056 223 63s-3.636 31.2-10.796 45.329C210.1 112.47 202.168 126 188.177 126H0z" fill="#555555" fill-rule="evenodd"></path></g></g><g><g transform="translate(13.415953621031747 2)"><path d="M14.9 15.8L14.1 18.2Q13.5 17.9 12.6 17.6Q11.7 17.2 10.6 17.2Q8.9 17.2 7.8 18.3Q6.6 19.3 6.1 21.1Q5.5 22.8 5.5 25Q5.5 28.6 6.8 30.7Q8.1 32.7 10.4 32.7Q11.1 32.7 11.9 32.5Q12.6 32.3 13.2 32.1Q13.8 31.8 14.1 31.6L14.9 34Q14 34.5 12.7 34.8Q11.4 35.1 9.6 35.1Q7.3 35.1 5.7 34.3Q4.1 33.5 3.1 32.1Q2 30.7 1.5 28.8Q1.1 27 1.1 25.1Q1.1 22.2 2.1 19.9Q3.2 17.6 5.2 16.2Q7.2 14.9 10.1 14.9Q12.9 14.9 14.9 15.8M29.6 15.8L28.9 18.2Q28.3 17.9 27.4 17.6Q26.4 17.2 25.4 17.2Q23.7 17.2 22.5 18.3Q21.4 19.3 20.8 21.1Q20.2 22.8 20.2 25Q20.2 28.6 21.6 30.7Q22.9 32.7 25.1 32.7Q25.9 32.7 26.6 32.5Q27.3 32.3 27.9 32.1Q28.5 31.8 28.9 31.6L29.7 34Q28.8 34.5 27.4 34.8Q26.1 35.1 24.3 35.1Q22.1 35.1 20.5 34.3Q18.8 33.5 17.8 32.1Q16.8 30.7 16.3 28.8Q15.8 27 15.8 25.1Q15.8 22.2 16.9 19.9Q17.9 17.6 19.9 16.2Q22 14.9 24.9 14.9Q27.6 14.9 29.6 15.8" fill="#231F20"></path><path d="M39 31.6L48.7 31.6L48.7 34.8L34.6 34.8L34.6 32.8Q37.5 30.3 40.4 27.1Q42.2 25.3 43.1 23.7Q44 22.1 44 20.5Q44 19.5 43.6 18.8Q43.2 18.2 42.6 17.8Q42 17.5 41.4 17.4Q40.8 17.2 40.4 17.2Q39.1 17.2 38.1 17.5Q37.1 17.8 36.6 18.1L35.8 15.9Q36.6 15.5 37.9 15.2Q39.2 14.9 41.4 14.9Q43.5 14.9 45 15.6Q46.5 16.2 47.3 17.4Q48.1 18.5 48.1 19.9Q48.1 21.5 47.3 23Q46.5 24.5 44.7 26.3Q42.6 28.4 39 31.6M54.6 31.6L64.3 31.6L64.3 34.8L50.3 34.8L50.3 32.8Q53.2 30.3 56.1 27.1Q57.9 25.3 58.8 23.7Q59.7 22.1 59.7 20.5Q59.7 19.5 59.3 18.8Q58.9 18.2 58.3 17.8Q57.7 17.5 57.1 17.4Q56.5 17.2 56.1 17.2Q54.7 17.2 53.7 17.5Q52.7 17.8 52.2 18.1L51.4 15.9Q52.3 15.5 53.5 15.2Q54.8 14.9 57 14.9Q59.2 14.9 60.7 15.6Q62.2 16.2 63 17.4Q63.8 18.5 63.8 19.9Q63.8 21.5 63 23Q62.2 24.5 60.4 26.3Q58.3 28.4 54.6 31.6" fill="#231F20"></path></g><g transform="translate(98.98223586309524 2)"><path d="M14.1 34.9L2.3 34.9L2.3 20.9Q2.3 20.1 3.2 19Q4.1 17.9 5.5 17.6L5.5 17.5L1.9 17.5L1.7 15.2L13.9 15.2L13.9 17.6L6.3 17.6L6.3 23.6L13.4 23.6L13.4 25.9L6.3 25.9L6.3 32.4L14.1 32.4L14.1 34.9M21.1 35L16.7 15.2L20.8 15.2L23.5 29.3L27.3 15.2L30.3 15.2L33.8 29.3L36.3 17.3Q36.5 16.5 37.1 16Q37.6 15.5 38.3 15.2Q39 15 39.5 15L34.8 34.9L31.9 34.9L28.1 20.7L24.7 32.6Q24.5 33.5 23.9 34.1Q23.3 34.6 22.5 34.8Q21.8 35 21.1 35" fill="white"></path><path d="M48.8 31.6L58.5 31.6L58.5 34.9L44.4 34.9L44.4 32.9Q47.3 30.4 50.2 27.2Q52 25.3 52.9 23.7Q53.8 22.1 53.8 20.6Q53.8 19.5 53.4 18.9Q53 18.2 52.4 17.9Q51.8 17.5 51.2 17.4Q50.6 17.3 50.2 17.3Q48.9 17.3 47.9 17.6Q46.8 17.9 46.4 18.2L45.5 15.9Q46.4 15.5 47.7 15.2Q49 15 51.1 15Q53.3 15 54.8 15.6Q56.3 16.3 57.1 17.4Q57.9 18.5 57.9 20Q57.9 21.5 57.1 23Q56.3 24.5 54.5 26.4Q52.4 28.5 48.8 31.6M59.8 19.2L66.9 15.2L69.3 15.2L69.3 34.9L65.6 34.9L65.6 18.2L60.7 21" fill="white"></path></g><g transform="translate(196.32683841765873 2)"><path d="M14.9 15.8L14.1 18.2Q13.5 17.9 12.6 17.6Q11.7 17.2 10.6 17.2Q8.9 17.2 7.8 18.3Q6.6 19.3 6.1 21.1Q5.5 22.8 5.5 25Q5.5 28.6 6.8 30.7Q8.1 32.7 10.4 32.7Q11.1 32.7 11.9 32.5Q12.6 32.3 13.2 32.1Q13.8 31.8 14.1 31.6L14.9 34Q14 34.5 12.7 34.8Q11.4 35.1 9.6 35.1Q7.3 35.1 5.7 34.3Q4.1 33.5 3.1 32.1Q2 30.7 1.5 28.8Q1.1 27 1.1 25.1Q1.1 22.2 2.1 19.9Q3.2 17.6 5.2 16.2Q7.2 14.9 10.1 14.9Q12.9 14.9 14.9 15.8M15.9 25Q15.9 22.4 16.6 20.5Q17.3 18.6 18.5 17.4Q19.7 16.1 21.3 15.5Q22.8 14.9 24.6 14.9Q26.1 14.9 27.6 15.3Q29.1 15.8 30.3 16.9Q31.5 18 32.3 19.9Q33 21.8 33 24.7Q33 28.2 32 30.5Q30.9 32.8 28.9 33.9Q27 35.1 24.3 35.1Q21.8 35.1 19.9 33.9Q18 32.8 16.9 30.5Q15.9 28.3 15.9 25M20.2 25.1Q20.2 27.9 20.8 29.6Q21.4 31.4 22.3 32.2Q23.2 33 24.4 33Q25.2 33 26 32.6Q26.8 32.2 27.4 31.3Q27.9 30.4 28.3 28.8Q28.6 27.2 28.6 25Q28.6 23.6 28.5 22.2Q28.4 20.8 27.9 19.6Q27.5 18.4 26.7 17.7Q25.9 16.9 24.6 16.9Q23.2 16.9 22.2 17.8Q21.3 18.6 20.8 20.5Q20.2 22.3 20.2 25.1" fill="white"></path><path d="M39.1 27.3L48.4 15.2L50.8 15.2L50.8 27L53.2 27L53.2 29.3L50.8 29.3L50.8 34.8L47.2 34.8L47.2 29.3L39.1 29.3L39.1 27.3M47.2 27L47.2 20L41.9 27" fill="white"></path></g></g></svg>