<svg xmlns="http://www.w3.org/2000/svg" aria-hidden="true" fill="none" focusable="false" height="54" viewBox="0 0 269.4761904761905 54" width="269.4761904761905"><g><g transform="translate(2 2) scale(0.3968253968253968)"><path d="M223 0H34.825c-13.992 0-21.925 13.52-24.028 17.671C3.636 31.809 0 47.055 0 63s3.636 31.2 10.797 45.329C12.9 112.48 20.833 126 34.825 126H223" fill="none" stroke="white" stroke-linecap="butt" stroke-linejoin="round" stroke-width="10.08"></path><path d="M223 126H34.825c-13.992 0-21.925-13.52-24.028-17.671C3.636 94.191 0 78.945 0 63s3.636-31.2 10.797-45.34C12.9 13.52 20.843 0 34.825 0H223v126" fill="#FF9E18" fill-rule="evenodd"></path></g><g transform="translate(90.4920634920635 2) scale(0.3968253968253968)"><path d="M0 0H223M0 126H223" fill="none" stroke="white" stroke-linecap="butt" stroke-linejoin="round" stroke-width="10.08"></path><path d="M0 63V0h223v126H0z" fill="#555555" fill-rule="evenodd"></path></g><g transform="translate(178.984126984127 2) scale(0.3968253968253968)"><path d="M0 0h188.177c13.981 0 21.923 13.52 24.027 17.66C219.364 31.8 223 47.056 223 63s-3.636 31.2-10.796 45.329C210.1 112.47 202.168 126 188.177 126H0" fill="none" stroke="white" stroke-linecap="butt" stroke-linejoin="round" stroke-width="10.08"></path><path d="M0 0h188.177c13.981 0 21.923 13.52 24.027 17.66C219.364 31.8 223 47.056 223 63s-3.636 31.2-10.796 45.329C210.1 112.47 202.168 126 188.177 126H0z" fill="#FDA5D1" fill-rule="evenodd"></path></g></g><g><g transform="translate(13.839781746031747 2)"><path d="M14.9 15.8L14.1 18.2Q13.5 17.9 12.6 17.6Q11.7 17.2 10.6 17.2Q8.9 17.2 7.8 18.3Q6.6 19.3 6.1 21.1Q5.5 22.8 5.5 25Q5.5 28.6 6.8 30.7Q8.1 32.7 10.4 32.7Q11.1 32.7 11.9 32.5Q12.6 32.3 13.2 32.1Q13.8 31.8 14.1 31.6L14.9 34Q14 34.5 12.7 34.8Q11.4 35.1 9.6 35.1Q7.3 35.1 5.7 34.3Q4.1 33.5 3.1 32.1Q2 30.7 1.5 28.8Q1.1 27 1.1 25.1Q1.1 22.2 2.1 19.9Q3.2 17.6 5.2 16.2Q7.2 14.9 10.1 14.9Q12.9 14.9 14.9 15.8M29.6 15.8L28.9 18.2Q28.3 17.9 27.4 17.6Q26.4 17.2 25.4 17.2Q23.7 17.2 22.5 18.3Q21.4 19.3 20.8 21.1Q20.2 22.8 20.2 25Q20.2 28.6 21.6 30.7Q22.9 32.7 25.1 32.7Q25.9 32.7 26.6 32.5Q27.3 32.3 27.9 32.1Q28.5 31.8 28.9 31.6L29.7 34Q28.8 34.5 27.4 34.8Q26.1 35.1 24.3 35.1Q22.1 35.1 20.5 34.3Q18.8 33.5 17.8 32.1Q16.8 30.7 16.3 28.8Q15.8 27 15.8 25.1Q15.8 22.2 16.9 19.9Q17.9 17.6 19.9 16.2Q22 14.9 24.9 14.9Q27.6 14.9 29.6 15.8" fill="#231F20"></path><path d="M39 31.6L48.7 31.6L48.7 34.8L34.6 34.8L34.6 32.8Q37.5 30.3 40.4 27.1Q42.2 25.3 43.1 23.7Q44 22.1 44 20.5Q44 19.5 43.6 18.8Q43.2 18.2 42.6 17.8Q42 17.5 41.4 17.4Q40.8 17.2 40.4 17.2Q39.1 17.2 38.1 17.5Q37.1 17.8 36.6 18.1L35.8 15.9Q36.6 15.5 37.9 15.2Q39.2 14.9 41.4 14.9Q43.5 14.9 45 15.6Q46.5 16.2 47.3 17.4Q48.1 18.5 48.1 19.9Q48.1 21.5 47.3 23Q46.5 24.5 44.7 26.3Q42.6 28.4 39 31.6M63.8 29.2Q63.8 30.9 62.9 32.2Q62 33.5 60.2 34.3Q58.5 35.1 56.2 35.1Q54.3 35.1 53 34.7Q51.6 34.4 50.7 33.9L51.4 31.6Q52 31.9 53.2 32.3Q54.4 32.7 55.8 32.7Q57.2 32.7 58.1 32.2Q59 31.7 59.4 30.9Q59.8 30.1 59.8 29.1Q59.8 28 59.2 27.1Q58.6 26.2 57.4 25.7Q56.9 25.5 56 25.5Q55.2 25.4 54.4 25.4L53.4 25.4L53.4 23.5L54.2 23.5Q55.1 23.5 55.9 23.4Q56.7 23.3 57.4 22.8Q58.1 22.5 58.5 21.8Q58.9 21.1 58.9 20.2Q58.9 18.7 58 18Q57.1 17.2 55.6 17.2Q54.4 17.2 53.4 17.5Q52.5 17.8 52 18.1L51.2 15.9Q51.9 15.5 53.1 15.2Q54.4 14.9 56.4 14.9Q59.3 14.9 61 16.1Q62.8 17.3 62.8 19.5Q62.8 20.8 62.2 21.7Q61.6 22.6 60.6 23.2Q59.6 23.9 58.5 24.2Q60.1 24.4 61.3 25.1Q62.4 25.7 63.1 26.8Q63.8 27.8 63.8 29.2" fill="#231F20"></path></g><g transform="translate(107.98516555059524 2)"><path d="M14.9 15.8L14.1 18.2Q13.5 17.9 12.6 17.6Q11.7 17.2 10.6 17.2Q8.9 17.2 7.8 18.3Q6.6 19.3 6.1 21.1Q5.5 22.8 5.5 25Q5.5 28.6 6.8 30.7Q8.1 32.7 10.4 32.7Q11.1 32.7 11.9 32.5Q12.6 32.3 13.2 32.1Q13.8 31.8 14.1 31.6L14.9 34Q14 34.5 12.7 34.8Q11.4 35.1 9.6 35.1Q7.3 35.1 5.7 34.3Q4.1 33.5 3.1 32.1Q2 30.7 1.5 28.8Q1.1 27 1.1 25.1Q1.1 22.2 2.1 19.9Q3.2 17.6 5.2 16.2Q7.2 14.9 10.1 14.9Q12.9 14.9 14.9 15.8M15.9 25Q15.9 22.4 16.6 20.5Q17.3 18.6 18.5 17.4Q19.7 16.1 21.3 15.5Q22.8 14.9 24.6 14.9Q26.1 14.9 27.6 15.3Q29.1 15.8 30.3 16.9Q31.5 18 32.3 19.9Q33 21.8 33 24.7Q33 28.2 32 30.5Q30.9 32.8 28.9 33.9Q27 35.1 24.3 35.1Q21.8 35.1 19.9 33.9Q18 32.8 16.9 30.5Q15.9 28.3 15.9 25M20.2 25.1Q20.2 27.9 20.8 29.6Q21.4 31.4 22.3 32.2Q23.2 33 24.4 33Q25.2 33 26 32.6Q26.8 32.2 27.4 31.3Q27.9 30.4 28.3 28.8Q28.6 27.2 28.6 25Q28.6 23.6 28.5 22.2Q28.4 20.8 27.9 19.6Q27.5 18.4 26.7 17.7Q25.9 16.9 24.6 16.9Q23.2 16.9 22.2 17.8Q21.3 18.6 20.8 20.5Q20.2 22.3 20.2 25.1" fill="white"></path><path d="M40.1 26.1L40.1 15.2L51 15.2L51 18.3L42.3 18.3L42.3 23.4Q43.2 23 44 22.9Q44.9 22.8 45.5 22.8Q46.8 22.8 48 23.2Q49.3 23.6 50.2 24.3Q51.2 25 51.7 26.1Q52.3 27.2 52.3 28.6Q52.3 29.9 51.8 31Q51.3 32.2 50.3 33.1Q49.4 34 48 34.6Q46.5 35.1 44.7 35.1Q43.4 35.1 42.4 34.9Q41.4 34.7 40.6 34.4Q39.8 34.2 39.3 33.9L40 31.6Q40.8 32 41.8 32.4Q42.9 32.7 44.3 32.7Q45.4 32.7 46.3 32.3Q47.2 32 47.7 31.1Q48.3 30.2 48.3 28.8Q48.3 27.7 47.9 27Q47.5 26.2 46.9 25.8Q46.3 25.3 45.5 25.2Q44.8 25 44 25Q43 25 42.3 25.2Q41.5 25.4 41 25.6Q40.4 25.9 40.1 26.1" fill="white"></path></g><g transform="translate(191.02898685515873 2)"><path d="M12.3 15.7L11.5 18.1Q10.8 17.7 9.8 17.4Q8.8 17.2 7.8 17.2Q6.4 17.2 5.6 17.7Q4.9 18.3 4.9 19.3Q4.9 20.2 5.4 20.8Q6 21.5 7.4 22.4L8.7 23.3Q10.1 24.2 11.1 25.1Q12.1 26 12.6 27.1Q13.1 28.2 13.1 29.6Q13.1 32.2 11.4 33.6Q9.7 35.1 6.6 35.1Q5.4 35.1 4.5 34.9Q3.5 34.7 2.7 34.4Q2 34.1 1.4 33.9L2.3 31.3Q3 31.8 4.1 32.3Q5.3 32.8 6.5 32.8Q7.5 32.8 8.2 32.4Q8.8 32.1 9.1 31.6Q9.4 31.1 9.4 30.5Q9.4 29.5 8.8 28.8Q8.2 28.1 6.6 27.1L5.4 26.3Q3.3 25 2.3 23.5Q1.3 22.1 1.3 20.1Q1.3 18.5 2.1 17.3Q2.9 16.1 4.3 15.5Q5.8 14.9 7.7 14.9Q10.2 14.9 12.3 15.7M23.9 34.8L19.9 34.8L19.9 21Q19.9 20.2 20.8 19.1Q21.7 18 23.1 17.7L23.1 17.6L14.9 17.6L14.7 15.2L29 15.2L29 17.6L23.9 17.6" fill="#231F20"></path><path d="M46.2 29.2Q46.2 30.9 45.3 32.2Q44.4 33.5 42.7 34.3Q40.9 35.1 38.6 35.1Q36.7 35.1 35.4 34.7Q34 34.4 33.1 33.9L33.8 31.6Q34.4 31.9 35.6 32.3Q36.8 32.7 38.2 32.7Q39.6 32.7 40.5 32.2Q41.4 31.7 41.8 30.9Q42.2 30.1 42.2 29.1Q42.2 28 41.6 27.1Q41 26.2 39.8 25.7Q39.3 25.5 38.4 25.5Q37.6 25.4 36.8 25.4L35.8 25.4L35.8 23.5L36.6 23.5Q37.5 23.5 38.3 23.4Q39.1 23.3 39.8 22.8Q40.5 22.5 40.9 21.8Q41.3 21.1 41.3 20.2Q41.3 18.7 40.4 18Q39.5 17.2 38 17.2Q36.8 17.2 35.8 17.5Q34.9 17.8 34.4 18.1L33.6 15.9Q34.3 15.5 35.5 15.2Q36.8 14.9 38.8 14.9Q41.7 14.9 43.5 16.1Q45.2 17.3 45.2 19.5Q45.2 20.8 44.6 21.7Q44 22.6 43 23.2Q42 23.9 40.9 24.2Q42.5 24.4 43.7 25.1Q44.9 25.7 45.5 26.8Q46.2 27.8 46.2 29.2M49.4 25.1Q49.4 24.1 49.6 22.7Q49.7 21.4 50.1 20Q50.5 18.7 51.3 17.5Q52 16.3 53.3 15.6Q54.6 14.9 56.5 14.9Q58.2 14.9 59.4 15.5Q60.6 16.2 61.3 17.3Q62 18.3 62.4 19.6Q62.8 20.9 63 22.3Q63.1 23.6 63.1 24.7Q63.1 26 62.9 27.4Q62.8 28.8 62.4 30.2Q62 31.6 61.2 32.7Q60.5 33.8 59.2 34.4Q58 35.1 56.1 35.1Q54.4 35.1 53.2 34.4Q51.9 33.7 51.2 32.6Q50.5 31.4 50.1 30.1Q49.7 28.7 49.6 27.4Q49.4 26.1 49.4 25.1M53.4 25Q53.4 26.7 53.5 28.2Q53.6 29.7 53.9 30.8Q54.1 31.9 54.7 32.5Q55.3 33.1 56.3 33.1Q57.4 33.1 58.1 32.2Q58.7 31.2 58.9 29.4Q59.1 27.5 59.1 25Q59.1 20.5 58.5 18.7Q57.9 16.8 56.3 16.8Q55.3 16.8 54.7 17.5Q54.1 18.1 53.9 19.3Q53.6 20.4 53.5 21.9Q53.4 23.4 53.4 25" fill="#231F20"></path></g></g></svg>