<svg xmlns="http://www.w3.org/2000/svg" aria-hidden="true" fill="none" focusable="false" height="54" viewBox="0 0 269.4761904761905 54" width="269.4761904761905"><g><g transform="translate(2 2) scale(0.3968253968253968)"><path d="M223 0H34.825c-13.992 0-21.925 13.52-24.028 17.671C3.636 31.809 0 47.055 0 63s3.636 31.2 10.797 45.329C12.9 112.48 20.833 126 34.825 126H223" fill="none" stroke="white" stroke-linecap="butt" stroke-linejoin="round" stroke-width="10.08"></path><path d="M223 126H34.825c-13.992 0-21.925-13.52-24.028-17.671C3.636 94.191 0 78.945 0 63s3.636-31.2 10.797-45.34C12.9 13.52 20.843 0 34.825 0H223v126" fill="#FF9E18" fill-rule="evenodd"></path></g><g transform="translate(90.4920634920635 2) scale(0.3968253968253968)"><path d="M0 0H223M0 126H223" fill="none" stroke="white" stroke-linecap="butt" stroke-linejoin="round" stroke-width="10.08"></path><path d="M0 63V0h223v126H0z" fill="#555555" fill-rule="evenodd"></path></g><g transform="translate(178.984126984127 2) scale(0.3968253968253968)"><path d="M0 0h188.177c13.981 0 21.923 13.52 24.027 17.66C219.364 31.8 223 47.056 223 63s-3.636 31.2-10.796 45.329C210.1 112.47 202.168 126 188.177 126H0" fill="none" stroke="white" stroke-linecap="butt" stroke-linejoin="round" stroke-width="10.08"></path><path d="M0 0h188.177c13.981 0 21.923 13.52 24.027 17.66C219.364 31.8 223 47.056 223 63s-3.636 31.2-10.796 45.329C210.1 112.47 202.168 126 188.177 126H0z" fill="#00B0BE" fill-rule="evenodd"></path></g></g><g><g transform="translate(13.286070808531747 2)"><path d="M14.9 15.8L14.1 18.2Q13.5 17.9 12.6 17.6Q11.7 17.2 10.6 17.2Q8.9 17.2 7.8 18.3Q6.6 19.3 6.1 21.1Q5.5 22.8 5.5 25Q5.5 28.6 6.8 30.7Q8.1 32.7 10.4 32.7Q11.1 32.7 11.9 32.5Q12.6 32.3 13.2 32.1Q13.8 31.8 14.1 31.6L14.9 34Q14 34.5 12.7 34.8Q11.4 35.1 9.6 35.1Q7.3 35.1 5.7 34.3Q4.1 33.5 3.1 32.1Q2 30.7 1.5 28.8Q1.1 27 1.1 25.1Q1.1 22.2 2.1 19.9Q3.2 17.6 5.2 16.2Q7.2 14.9 10.1 14.9Q12.9 14.9 14.9 15.8M29.6 15.8L28.9 18.2Q28.3 17.9 27.4 17.6Q26.4 17.2 25.4 17.2Q23.7 17.2 22.5 18.3Q21.4 19.3 20.8 21.1Q20.2 22.8 20.2 25Q20.2 28.6 21.6 30.7Q22.9 32.7 25.1 32.7Q25.9 32.7 26.6 32.5Q27.3 32.3 27.9 32.1Q28.5 31.8 28.9 31.6L29.7 34Q28.8 34.5 27.4 34.8Q26.1 35.1 24.3 35.1Q22.1 35.1 20.5 34.3Q18.8 33.5 17.8 32.1Q16.8 30.7 16.3 28.8Q15.8 27 15.8 25.1Q15.8 22.2 16.9 19.9Q17.9 17.6 19.9 16.2Q22 14.9 24.9 14.9Q27.6 14.9 29.6 15.8" fill="#231F20"></path><path d="M39 31.6L48.7 31.6L48.7 34.8L34.6 34.8L34.6 32.8Q37.5 30.3 40.4 27.1Q42.2 25.3 43.1 23.7Q44 22.1 44 20.5Q44 19.5 43.6 18.8Q43.2 18.2 42.6 17.8Q42 17.5 41.4 17.4Q40.8 17.2 40.4 17.2Q39.1 17.2 38.1 17.5Q37.1 17.8 36.6 18.1L35.8 15.9Q36.6 15.5 37.9 15.2Q39.2 14.9 41.4 14.9Q43.5 14.9 45 15.6Q46.5 16.2 47.3 17.4Q48.1 18.5 48.1 19.9Q48.1 21.5 47.3 23Q46.5 24.5 44.7 26.3Q42.6 28.4 39 31.6M51.2 27.3L60.5 15.2L62.9 15.2L62.9 27L65.3 27L65.3 29.3L62.9 29.3L62.9 34.8L59.3 34.8L59.3 29.3L51.2 29.3L51.2 27.3M59.3 27L59.3 20L54 27" fill="#231F20"></path></g><g transform="translate(107.30157180059524 2)"><path d="M14.9 15.8L14.1 18.2Q13.5 17.9 12.6 17.6Q11.7 17.2 10.6 17.2Q8.9 17.2 7.8 18.3Q6.6 19.3 6.1 21.1Q5.5 22.8 5.5 25Q5.5 28.6 6.8 30.7Q8.1 32.7 10.4 32.7Q11.1 32.7 11.9 32.5Q12.6 32.3 13.2 32.1Q13.8 31.8 14.1 31.6L14.9 34Q14 34.5 12.7 34.8Q11.4 35.1 9.6 35.1Q7.3 35.1 5.7 34.3Q4.1 33.5 3.1 32.1Q2 30.7 1.5 28.8Q1.1 27 1.1 25.1Q1.1 22.2 2.1 19.9Q3.2 17.6 5.2 16.2Q7.2 14.9 10.1 14.9Q12.9 14.9 14.9 15.8M15.9 25Q15.9 22.4 16.6 20.5Q17.3 18.6 18.5 17.4Q19.7 16.1 21.3 15.5Q22.8 14.9 24.6 14.9Q26.1 14.9 27.6 15.3Q29.1 15.8 30.3 16.9Q31.5 18 32.3 19.9Q33 21.8 33 24.7Q33 28.2 32 30.5Q30.9 32.8 28.9 33.9Q27 35.1 24.3 35.1Q21.8 35.1 19.9 33.9Q18 32.8 16.9 30.5Q15.9 28.3 15.9 25M20.2 25.1Q20.2 27.9 20.8 29.6Q21.4 31.4 22.3 32.2Q23.2 33 24.4 33Q25.2 33 26 32.6Q26.8 32.2 27.4 31.3Q27.9 30.4 28.3 28.8Q28.6 27.2 28.6 25Q28.6 23.6 28.5 22.2Q28.4 20.8 27.9 19.6Q27.5 18.4 26.7 17.7Q25.9 16.9 24.6 16.9Q23.2 16.9 22.2 17.8Q21.3 18.6 20.8 20.5Q20.2 22.3 20.2 25.1" fill="white"></path><path d="M52.7 15.9L51.9 18.1Q51.5 17.8 50.6 17.5Q49.7 17.2 48.6 17.2Q47 17.2 46 18Q45 18.9 44.5 20.6Q44 22.2 44 24.4Q44 24.7 44 24.9Q44.6 23.9 45.3 23.4Q46.1 22.9 46.9 22.7Q47.6 22.5 48.2 22.5Q49.7 22.5 50.9 23.2Q52.2 23.9 53 25.2Q53.8 26.5 53.8 28.5Q53.8 30.4 53 31.9Q52.2 33.4 50.7 34.2Q49.2 35.1 47.1 35.1Q45.4 35.1 44.2 34.5Q43 33.9 42.2 32.9Q41.3 31.9 40.9 30.6Q40.4 29.4 40.2 28Q40 26.6 40 25.4Q40 21.9 41.1 19.6Q42.2 17.3 44.1 16.1Q46 14.9 48.3 14.9Q49.4 14.9 50.3 15.1Q51.1 15.2 51.7 15.5Q52.4 15.7 52.7 15.9M44.3 29Q44.3 29.7 44.4 30.4Q44.6 31.1 44.9 31.8Q45.2 32.4 45.7 32.8Q46.2 33.1 47.1 33.1Q48 33.1 48.5 32.7Q49.1 32.3 49.4 31.6Q49.7 30.9 49.8 30.2Q49.9 29.4 49.9 28.8Q49.9 27.3 49.5 26.4Q49.1 25.5 48.5 25.1Q47.8 24.7 47.1 24.7Q45.7 24.7 45 25.9Q44.3 27 44.3 29" fill="white"></path></g><g transform="translate(192.47820560515873 2)"><path d="M6.5 29.7L6.5 18.3Q6.5 17.7 7.2 16.9Q7.8 16.1 8.7 15.5Q9.7 14.9 10.7 14.9L10.7 28.9Q10.7 30.6 10.2 31.8Q9.6 33 8.7 33.8Q7.8 34.5 6.6 34.8Q5.5 35.2 4.2 35.2Q3 35.2 1.9 34.9Q0.8 34.6-0.3 33.9L0.5 31.2Q1.3 31.9 2.2 32.3Q3.1 32.7 4.1 32.7Q5.2 32.7 5.7 32.3Q6.2 31.8 6.4 31.2Q6.5 30.5 6.5 29.7M27.2 34.8L15.4 34.8L15.4 20.8Q15.4 20 16.4 18.9Q17.3 17.8 18.6 17.5L18.6 17.4L15 17.4L14.8 15.1L27.1 15.1L27.1 17.5L19.4 17.5L19.4 23.5L26.6 23.5L26.6 25.8L19.4 25.8L19.4 32.3L27.2 32.3" fill="white"></path><path d="M32.6 19.1L39.7 15.1L42.1 15.1L42.1 34.8L38.4 34.8L38.4 18.1L33.5 21L32.6 19.1M46.5 25Q46.5 24 46.7 22.7Q46.8 21.3 47.2 20Q47.6 18.6 48.4 17.5Q49.1 16.3 50.4 15.6Q51.7 14.8 53.6 14.8Q55.3 14.8 56.5 15.5Q57.7 16.1 58.4 17.2Q59.1 18.3 59.5 19.6Q59.9 20.9 60.1 22.2Q60.2 23.5 60.2 24.7Q60.2 25.9 60 27.4Q59.9 28.8 59.5 30.1Q59.1 31.5 58.3 32.6Q57.6 33.7 56.3 34.4Q55.1 35.1 53.2 35.1Q51.5 35.1 50.3 34.4Q49 33.7 48.3 32.5Q47.6 31.4 47.2 30Q46.8 28.7 46.7 27.4Q46.5 26.1 46.5 25M50.5 25Q50.5 26.7 50.6 28.2Q50.7 29.6 51 30.7Q51.2 31.8 51.8 32.5Q52.4 33.1 53.4 33.1Q54.5 33.1 55.2 32.1Q55.8 31.1 56 29.3Q56.2 27.5 56.2 24.9Q56.2 20.5 55.6 18.6Q55 16.8 53.5 16.8Q52.4 16.8 51.8 17.4Q51.3 18.1 51 19.2Q50.7 20.4 50.6 21.9Q50.5 23.3 50.5 25" fill="white"></path></g></g></svg>