<svg xmlns="http://www.w3.org/2000/svg" aria-hidden="true" fill="none" focusable="false" height="54" viewBox="0 0 180.984126984127 54" width="180.984126984127"><g><g transform="translate(2 2) scale(0.3968253968253968)"><path d="M223 0H34.825c-13.992 0-21.925 13.52-24.028 17.671C3.636 31.809 0 47.055 0 63s3.636 31.2 10.797 45.329C12.9 112.48 20.833 126 34.825 126H223" fill="none" stroke="white" stroke-linecap="butt" stroke-linejoin="round" stroke-width="10.08"></path><path d="M223 126H34.825c-13.992 0-21.925-13.52-24.028-17.671C3.636 94.191 0 78.945 0 63s3.636-31.2 10.797-45.34C12.9 13.52 20.843 0 34.825 0H223v126" fill="#FF9E18" fill-rule="evenodd"></path></g><g transform="translate(90.4920634920635 2) scale(0.3968253968253968)"><path d="M0 0h188.177c13.981 0 21.923 13.52 24.027 17.66C219.364 31.8 223 47.056 223 63s-3.636 31.2-10.796 45.329C210.1 112.47 202.168 126 188.177 126H0" fill="none" stroke="white" stroke-linecap="butt" stroke-linejoin="round" stroke-width="10.08"></path><path d="M0 0h188.177c13.981 0 21.923 13.52 24.027 17.66C219.364 31.8 223 47.056 223 63s-3.636 31.2-10.796 45.329C210.1 112.47 202.168 126 188.177 126H0z" fill="#9E28B5" fill-rule="evenodd"></path></g></g><g><g transform="translate(13.087828621031747 2)"><path d="M14.9 15.8L14.1 18.2Q13.5 17.9 12.6 17.6Q11.7 17.2 10.6 17.2Q8.9 17.2 7.8 18.3Q6.6 19.3 6.1 21.1Q5.5 22.8 5.5 25Q5.5 28.6 6.8 30.7Q8.1 32.7 10.4 32.7Q11.1 32.7 11.9 32.5Q12.6 32.3 13.2 32.1Q13.8 31.8 14.1 31.6L14.9 34Q14 34.5 12.7 34.8Q11.4 35.1 9.6 35.1Q7.3 35.1 5.7 34.3Q4.1 33.5 3.1 32.1Q2 30.7 1.5 28.8Q1.1 27 1.1 25.1Q1.1 22.2 2.1 19.9Q3.2 17.6 5.2 16.2Q7.2 14.9 10.1 14.9Q12.9 14.9 14.9 15.8M29.6 15.8L28.9 18.2Q28.3 17.9 27.4 17.6Q26.4 17.2 25.4 17.2Q23.7 17.2 22.5 18.3Q21.4 19.3 20.8 21.1Q20.2 22.8 20.2 25Q20.2 28.6 21.6 30.7Q22.9 32.7 25.1 32.7Q25.9 32.7 26.6 32.5Q27.3 32.3 27.9 32.1Q28.5 31.8 28.9 31.6L29.7 34Q28.8 34.5 27.4 34.8Q26.1 35.1 24.3 35.1Q22.1 35.1 20.5 34.3Q18.8 33.5 17.8 32.1Q16.8 30.7 16.3 28.8Q15.8 27 15.8 25.1Q15.8 22.2 16.9 19.9Q17.9 17.6 19.9 16.2Q22 14.9 24.9 14.9Q27.6 14.9 29.6 15.8" fill="#231F20"></path><path d="M39 31.6L48.7 31.6L48.7 34.8L34.6 34.8L34.6 32.8Q37.5 30.3 40.4 27.1Q42.2 25.3 43.1 23.7Q44 22.1 44 20.5Q44 19.5 43.6 18.8Q43.2 18.2 42.6 17.8Q42 17.5 41.4 17.4Q40.8 17.2 40.4 17.2Q39.1 17.2 38.1 17.5Q37.1 17.8 36.6 18.1L35.8 15.9Q36.6 15.5 37.9 15.2Q39.2 14.9 41.4 14.9Q43.5 14.9 45 15.6Q46.5 16.2 47.3 17.4Q48.1 18.5 48.1 19.9Q48.1 21.5 47.3 23Q46.5 24.5 44.7 26.3Q42.6 28.4 39 31.6M52.3 34.1L53.1 31.9Q53.7 32.3 54.6 32.6Q55.5 32.9 56.5 32.9Q57.8 32.9 58.6 32.3Q59.5 31.8 60 30.9Q60.5 30 60.7 29Q60.9 28 61 27Q61.1 26.1 61.1 25.4L61.1 25Q60.7 25.6 60.1 26.2Q59.5 26.8 58.7 27.2Q57.9 27.5 56.9 27.5Q55.4 27.5 54.1 26.9Q52.9 26.2 52.1 24.8Q51.3 23.4 51.3 21.5Q51.3 19.7 52 18.2Q52.8 16.7 54.3 15.8Q55.8 14.9 57.9 14.9Q59.7 14.9 61 15.5Q62.2 16 63 17Q63.8 18 64.3 19.1Q64.7 20.3 64.9 21.6Q65.1 22.9 65.1 24Q65.1 26.7 64.5 28.9Q63.9 31 62.6 32.6Q61.8 33.6 60.8 34.1Q59.8 34.7 58.8 34.9Q57.8 35.1 56.9 35.1Q55.5 35.1 54.3 34.8Q53.2 34.5 52.3 34.1M55.1 21Q55.1 22.1 55.4 23.1Q55.7 24.1 56.3 24.7Q56.9 25.3 57.9 25.3Q58.9 25.3 59.5 24.7Q60.1 24.2 60.4 23.2Q60.8 22.2 60.8 20.9Q60.8 19.8 60.5 18.8Q60.2 17.9 59.5 17.4Q58.9 16.8 58 16.8Q56.9 16.8 56.3 17.4Q55.7 18 55.4 19Q55.1 19.9 55.1 21" fill="#231F20"></path></g><g transform="translate(110.20684523809524 2)"><path d="M16.6 15.1L16.6 34.9L14.1 34.9L4.3 21.6L4.3 34.9L1.7 34.9L1.7 15.3L4.2 15.3L13.9 28.5L13.9 17.4Q13.9 17 14.3 16.4Q14.7 15.9 15.3 15.5Q15.9 15.1 16.6 15.1M31.9 34.9L20.2 34.9L20.2 20.9Q20.2 20.1 21.1 19.1Q22 18 23.4 17.6L23.4 17.5L19.8 17.5L19.6 15.3L31.8 15.3L31.8 17.7L24.2 17.7L24.2 23.6L31.3 23.6L31.3 25.9L24.2 25.9L24.2 32.4L31.9 32.4" fill="white"></path><path d="M37.3 19.3L44.4 15.3L46.8 15.3L46.8 34.9L43.1 34.9L43.1 18.3L38.3 21.1" fill="white"></path></g></g></svg>