<svg xmlns="http://www.w3.org/2000/svg" aria-hidden="true" fill="none" focusable="false" height="54" viewBox="0 0 269.4761904761905 54" width="269.4761904761905"><g><g transform="translate(2 2) scale(0.3968253968253968)"><path d="M223 0H34.825c-13.992 0-21.925 13.52-24.028 17.671C3.636 31.809 0 47.055 0 63s3.636 31.2 10.797 45.329C12.9 112.48 20.833 126 34.825 126H223" fill="none" stroke="white" stroke-linecap="butt" stroke-linejoin="round" stroke-width="10.08"></path><path d="M223 126H34.825c-13.992 0-21.925-13.52-24.028-17.671C3.636 94.191 0 78.945 0 63s3.636-31.2 10.797-45.34C12.9 13.52 20.843 0 34.825 0H223v126" fill="#FF9E18" fill-rule="evenodd"></path></g><g transform="translate(90.4920634920635 2) scale(0.3968253968253968)"><path d="M0 0H223M0 126H223" fill="none" stroke="white" stroke-linecap="butt" stroke-linejoin="round" stroke-width="10.08"></path><path d="M0 63V0h223v126H0z" fill="#9E28B5" fill-rule="evenodd"></path></g><g transform="translate(178.984126984127 2) scale(0.3968253968253968)"><path d="M0 0h188.177c13.981 0 21.923 13.52 24.027 17.66C219.364 31.8 223 47.056 223 63s-3.636 31.2-10.796 45.329C210.1 112.47 202.168 126 188.177 126H0" fill="none" stroke="white" stroke-linecap="butt" stroke-linejoin="round" stroke-width="10.08"></path><path d="M0 0h188.177c13.981 0 21.923 13.52 24.027 17.66C219.364 31.8 223 47.056 223 63s-3.636 31.2-10.796 45.329C210.1 112.47 202.168 126 188.177 126H0z" fill="#FDA5D1" fill-rule="evenodd"></path></g></g><g><g transform="translate(13.080992683531747 2)"><path d="M14.9 15.8L14.1 18.2Q13.5 17.9 12.6 17.6Q11.7 17.2 10.6 17.2Q8.9 17.2 7.8 18.3Q6.6 19.3 6.1 21.1Q5.5 22.8 5.5 25Q5.5 28.6 6.8 30.7Q8.1 32.7 10.4 32.7Q11.1 32.7 11.9 32.5Q12.6 32.3 13.2 32.1Q13.8 31.8 14.1 31.6L14.9 34Q14 34.5 12.7 34.8Q11.4 35.1 9.6 35.1Q7.3 35.1 5.7 34.3Q4.1 33.5 3.1 32.1Q2 30.7 1.5 28.8Q1.1 27 1.1 25.1Q1.1 22.2 2.1 19.9Q3.2 17.6 5.2 16.2Q7.2 14.9 10.1 14.9Q12.9 14.9 14.9 15.8M29.6 15.8L28.9 18.2Q28.3 17.9 27.4 17.6Q26.4 17.2 25.4 17.2Q23.7 17.2 22.5 18.3Q21.4 19.3 20.8 21.1Q20.2 22.8 20.2 25Q20.2 28.6 21.6 30.7Q22.9 32.7 25.1 32.7Q25.9 32.7 26.6 32.5Q27.3 32.3 27.9 32.1Q28.5 31.8 28.9 31.6L29.7 34Q28.8 34.5 27.4 34.8Q26.1 35.1 24.3 35.1Q22.1 35.1 20.5 34.3Q18.8 33.5 17.8 32.1Q16.8 30.7 16.3 28.8Q15.8 27 15.8 25.1Q15.8 22.2 16.9 19.9Q17.9 17.6 19.9 16.2Q22 14.9 24.9 14.9Q27.6 14.9 29.6 15.8" fill="#231F20"></path><path d="M48.2 29.2Q48.2 30.9 47.2 32.2Q46.3 33.5 44.6 34.3Q42.9 35.1 40.5 35.1Q38.7 35.1 37.3 34.7Q36 34.4 35 33.9L35.8 31.6Q36.3 31.9 37.5 32.3Q38.7 32.7 40.2 32.7Q41.5 32.7 42.4 32.2Q43.3 31.7 43.7 30.9Q44.1 30.1 44.1 29.1Q44.1 28 43.6 27.1Q43 26.2 41.8 25.7Q41.2 25.5 40.3 25.5Q39.5 25.4 38.7 25.4L37.8 25.4L37.8 23.5L38.5 23.5Q39.4 23.5 40.2 23.4Q41.1 23.3 41.8 22.8Q42.4 22.5 42.8 21.8Q43.2 21.1 43.2 20.2Q43.2 18.7 42.3 18Q41.4 17.2 39.9 17.2Q38.7 17.2 37.8 17.5Q36.9 17.8 36.3 18.1L35.5 15.9Q36.2 15.5 37.4 15.2Q38.7 14.9 40.7 14.9Q43.6 14.9 45.4 16.1Q47.1 17.3 47.1 19.5Q47.1 20.8 46.5 21.7Q45.9 22.6 44.9 23.2Q43.9 23.9 42.8 24.2Q44.4 24.4 45.6 25.1Q46.8 25.7 47.5 26.8Q48.2 27.8 48.2 29.2M51.4 25.1Q51.4 24.1 51.5 22.7Q51.6 21.4 52 20Q52.4 18.7 53.2 17.5Q54 16.3 55.2 15.6Q56.5 14.9 58.4 14.9Q60.1 14.9 61.3 15.5Q62.5 16.2 63.2 17.3Q64 18.3 64.4 19.6Q64.7 20.9 64.9 22.3Q65 23.6 65 24.7Q65 26 64.9 27.4Q64.7 28.8 64.3 30.2Q63.9 31.6 63.2 32.7Q62.4 33.8 61.1 34.4Q59.9 35.1 58.1 35.1Q56.3 35.1 55.1 34.4Q53.9 33.7 53.1 32.6Q52.4 31.4 52 30.1Q51.6 28.7 51.5 27.4Q51.4 26.1 51.4 25.1M55.3 25Q55.3 26.7 55.4 28.2Q55.5 29.7 55.8 30.8Q56.1 31.9 56.6 32.5Q57.2 33.1 58.2 33.1Q59.4 33.1 60 32.2Q60.6 31.2 60.8 29.4Q61.1 27.5 61.1 25Q61.1 20.5 60.5 18.7Q59.8 16.8 58.3 16.8Q57.3 16.8 56.7 17.5Q56.1 18.1 55.8 19.3Q55.5 20.4 55.4 21.9Q55.3 23.4 55.3 25" fill="#231F20"></path></g><g transform="translate(108.23809523809524 2)"><path d="M16.6 15.1L16.6 34.9L14.1 34.9L4.3 21.7L4.3 34.9L1.7 34.9L1.7 15.3L4.2 15.3L13.9 28.6L13.9 17.4Q13.9 17 14.3 16.5Q14.7 15.9 15.3 15.5Q15.9 15.1 16.6 15.1M31.9 34.9L20.2 34.9L20.2 21Q20.2 20.2 21.1 19.1Q22 18 23.4 17.7L23.4 17.6L19.8 17.6L19.6 15.3L31.8 15.3L31.8 17.7L24.2 17.7L24.2 23.6L31.3 23.6L31.3 26L24.2 26L24.2 32.5L31.9 32.5" fill="white"></path><path d="M42 31.7L51.7 31.7L51.7 35L37.6 35L37.6 33Q40.5 30.5 43.4 27.3Q45.2 25.4 46.1 23.8Q47 22.2 47 20.7Q47 19.6 46.6 19Q46.2 18.3 45.7 18Q45.1 17.6 44.4 17.5Q43.8 17.4 43.4 17.4Q42.1 17.4 41.1 17.7Q40.1 18 39.6 18.3L38.8 16Q39.6 15.6 40.9 15.3Q42.2 15 44.4 15Q46.5 15 48 15.7Q49.6 16.4 50.4 17.5Q51.2 18.6 51.2 20.1Q51.2 21.6 50.3 23.1Q49.5 24.6 47.7 26.5Q45.6 28.6 42 31.7" fill="white"></path></g><g transform="translate(191.38445560515873 2)"><path d="M12.3 15.7L11.5 18.1Q10.8 17.7 9.8 17.4Q8.8 17.2 7.8 17.2Q6.4 17.2 5.6 17.7Q4.9 18.3 4.9 19.3Q4.9 20.1 5.4 20.8Q6 21.5 7.4 22.4L8.7 23.3Q10.1 24.2 11.1 25.1Q12.1 26 12.6 27.1Q13.1 28.2 13.1 29.6Q13.1 32.2 11.4 33.6Q9.7 35.1 6.6 35.1Q5.4 35.1 4.5 34.9Q3.5 34.7 2.7 34.4Q2 34.1 1.4 33.9L2.3 31.3Q3 31.8 4.1 32.3Q5.3 32.8 6.5 32.8Q7.5 32.8 8.2 32.4Q8.8 32.1 9.1 31.6Q9.4 31.1 9.4 30.5Q9.4 29.5 8.8 28.8Q8.2 28.1 6.6 27.1L5.4 26.3Q3.3 24.9 2.3 23.5Q1.3 22.1 1.3 20.1Q1.3 18.5 2.1 17.3Q2.9 16.1 4.3 15.5Q5.8 14.9 7.7 14.9Q10.2 14.9 12.3 15.7M23.9 34.8L19.9 34.8L19.9 21Q19.9 20.2 20.8 19.1Q21.7 18 23.1 17.7L23.1 17.6L14.9 17.6L14.7 15.2L29 15.2L29 17.6L23.9 17.6" fill="#231F20"></path><path d="M37 31.6L46.8 31.6L46.8 34.8L32.7 34.8L32.7 32.8Q35.6 30.3 38.5 27.1Q40.3 25.2 41.2 23.7Q42.1 22.1 42.1 20.5Q42.1 19.5 41.7 18.8Q41.3 18.2 40.7 17.8Q40.1 17.5 39.5 17.3Q38.9 17.2 38.5 17.2Q37.1 17.2 36.1 17.5Q35.1 17.8 34.6 18.1L33.8 15.9Q34.7 15.4 36 15.2Q37.2 14.9 39.4 14.9Q41.6 14.9 43.1 15.6Q44.6 16.2 45.4 17.4Q46.2 18.5 46.2 19.9Q46.2 21.5 45.4 23Q44.6 24.5 42.8 26.3Q40.7 28.4 37 31.6M50.3 26.1L50.3 15.2L61.2 15.2L61.2 18.3L52.5 18.3L52.5 23.3Q53.4 23 54.2 22.9Q55 22.8 55.7 22.8Q57 22.8 58.2 23.2Q59.4 23.6 60.4 24.3Q61.4 25 61.9 26.1Q62.5 27.2 62.5 28.6Q62.5 29.9 62 31Q61.5 32.2 60.5 33.1Q59.6 34 58.1 34.6Q56.7 35.1 54.9 35.1Q53.6 35.1 52.6 34.9Q51.5 34.7 50.8 34.4Q50 34.1 49.4 33.8L50.2 31.6Q51 32 52 32.4Q53.1 32.7 54.5 32.7Q55.6 32.7 56.5 32.3Q57.4 32 57.9 31.1Q58.5 30.2 58.5 28.8Q58.5 27.7 58.1 27Q57.7 26.2 57.1 25.8Q56.5 25.3 55.7 25.1Q55 24.9 54.2 24.9Q53.2 24.9 52.5 25.2Q51.7 25.4 51.2 25.6Q50.6 25.9 50.3 26.1" fill="#231F20"></path></g></g></svg>