<svg xmlns="http://www.w3.org/2000/svg" aria-hidden="true" fill="none" focusable="false" height="54" viewBox="0 0 180.984126984127 54" width="180.984126984127"><g><g transform="translate(2 2) scale(0.3968253968253968)"><path d="M223 0H34.825c-13.992 0-21.925 13.52-24.028 17.671C3.636 31.809 0 47.055 0 63s3.636 31.2 10.797 45.329C12.9 112.48 20.833 126 34.825 126H223" fill="none" stroke="white" stroke-linecap="butt" stroke-linejoin="round" stroke-width="10.08"></path><path d="M223 126H34.825c-13.992 0-21.925-13.52-24.028-17.671C3.636 94.191 0 78.945 0 63s3.636-31.2 10.797-45.34C12.9 13.52 20.843 0 34.825 0H223v126" fill="#FF9E18" fill-rule="evenodd"></path></g><g transform="translate(90.4920634920635 2) scale(0.3968253968253968)"><path d="M0 0h188.177c13.981 0 21.923 13.52 24.027 17.66C219.364 31.8 223 47.056 223 63s-3.636 31.2-10.796 45.329C210.1 112.47 202.168 126 188.177 126H0" fill="none" stroke="white" stroke-linecap="butt" stroke-linejoin="round" stroke-width="10.08"></path><path d="M0 0h188.177c13.981 0 21.923 13.52 24.027 17.66C219.364 31.8 223 47.056 223 63s-3.636 31.2-10.796 45.329C210.1 112.47 202.168 126 188.177 126H0z" fill="#FDA5D1" fill-rule="evenodd"></path></g></g><g><g transform="translate(13.839781746031747 2)"><path d="M14.9 15.8L14.1 18.2Q13.5 17.9 12.6 17.6Q11.7 17.2 10.6 17.2Q8.9 17.2 7.8 18.3Q6.6 19.3 6.1 21.1Q5.5 22.8 5.5 25Q5.5 28.6 6.8 30.7Q8.1 32.7 10.4 32.7Q11.1 32.7 11.9 32.5Q12.6 32.3 13.2 32.1Q13.8 31.8 14.1 31.6L14.9 34Q14 34.5 12.7 34.8Q11.4 35.1 9.6 35.1Q7.3 35.1 5.7 34.3Q4.1 33.5 3.1 32.1Q2 30.7 1.5 28.8Q1.1 27 1.1 25.1Q1.1 22.2 2.1 19.9Q3.2 17.6 5.2 16.2Q7.2 14.9 10.1 14.9Q12.9 14.9 14.9 15.8M29.6 15.8L28.9 18.2Q28.3 17.9 27.4 17.6Q26.4 17.2 25.4 17.2Q23.7 17.2 22.5 18.3Q21.4 19.3 20.8 21.1Q20.2 22.8 20.2 25Q20.2 28.6 21.6 30.7Q22.9 32.7 25.1 32.7Q25.9 32.7 26.6 32.5Q27.3 32.3 27.9 32.1Q28.5 31.8 28.9 31.6L29.7 34Q28.8 34.5 27.4 34.8Q26.1 35.1 24.3 35.1Q22.1 35.1 20.5 34.3Q18.8 33.5 17.8 32.1Q16.8 30.7 16.3 28.8Q15.8 27 15.8 25.1Q15.8 22.2 16.9 19.9Q17.9 17.6 19.9 16.2Q22 14.9 24.9 14.9Q27.6 14.9 29.6 15.8" fill="#231F20"></path><path d="M48.2 29.2Q48.2 30.9 47.2 32.2Q46.3 33.5 44.6 34.3Q42.9 35.1 40.5 35.1Q38.7 35.1 37.3 34.7Q36 34.4 35 33.9L35.8 31.6Q36.3 31.9 37.5 32.3Q38.7 32.7 40.2 32.7Q41.5 32.7 42.4 32.2Q43.3 31.7 43.7 30.9Q44.1 30.1 44.1 29.1Q44.1 28 43.6 27.1Q43 26.2 41.8 25.7Q41.2 25.5 40.3 25.5Q39.5 25.4 38.7 25.4L37.8 25.4L37.8 23.5L38.5 23.5Q39.4 23.5 40.2 23.4Q41.1 23.3 41.8 22.8Q42.4 22.5 42.8 21.8Q43.2 21.1 43.2 20.2Q43.2 18.7 42.3 18Q41.4 17.2 39.9 17.2Q38.7 17.2 37.8 17.5Q36.9 17.8 36.3 18.1L35.5 15.9Q36.2 15.5 37.4 15.2Q38.7 14.9 40.7 14.9Q43.6 14.9 45.4 16.1Q47.1 17.3 47.1 19.5Q47.1 20.8 46.5 21.7Q45.9 22.6 44.9 23.2Q43.9 23.9 42.8 24.2Q44.4 24.4 45.6 25.1Q46.8 25.7 47.5 26.8Q48.2 27.8 48.2 29.2M53.8 31.6L63.5 31.6L63.5 34.8L49.4 34.8L49.4 32.8Q52.3 30.3 55.3 27.1Q57 25.3 57.9 23.7Q58.9 22.1 58.9 20.5Q58.9 19.5 58.5 18.8Q58.1 18.2 57.5 17.8Q56.9 17.5 56.3 17.4Q55.7 17.2 55.2 17.2Q53.9 17.2 52.9 17.5Q51.9 17.8 51.4 18.1L50.6 15.9Q51.4 15.5 52.7 15.2Q54 14.9 56.2 14.9Q58.3 14.9 59.8 15.6Q61.4 16.2 62.2 17.4Q63 18.5 63 19.9Q63 21.5 62.1 23Q61.3 24.5 59.5 26.3Q57.5 28.4 53.8 31.6" fill="#231F20"></path></g><g transform="translate(103.29571242559524 2)"><path d="M12.3 15.7L11.5 18.1Q10.8 17.7 9.8 17.4Q8.8 17.2 7.8 17.2Q6.4 17.2 5.6 17.7Q4.9 18.3 4.9 19.3Q4.9 20.2 5.4 20.8Q6 21.5 7.4 22.4L8.7 23.3Q10.1 24.2 11.1 25.1Q12.1 26 12.6 27.1Q13.1 28.2 13.1 29.6Q13.1 32.2 11.4 33.6Q9.7 35.1 6.6 35.1Q5.4 35.1 4.5 34.9Q3.5 34.7 2.7 34.4Q2 34.1 1.4 33.9L2.3 31.3Q3 31.8 4.1 32.3Q5.3 32.8 6.5 32.8Q7.5 32.8 8.2 32.4Q8.8 32.1 9.1 31.6Q9.4 31.1 9.4 30.5Q9.4 29.5 8.8 28.8Q8.2 28.1 6.6 27.1L5.4 26.3Q3.3 25 2.3 23.5Q1.3 22.1 1.3 20.1Q1.3 18.5 2.1 17.3Q2.9 16.1 4.3 15.5Q5.8 14.9 7.7 14.9Q10.2 14.9 12.3 15.7M23.9 34.8L19.9 34.8L19.9 21Q19.9 20.2 20.8 19.1Q21.7 18 23.1 17.7L23.1 17.6L14.9 17.6L14.7 15.2L29 15.2L29 17.6L23.9 17.6" fill="#231F20"></path><path d="M37 31.6L46.8 31.6L46.8 34.8L32.7 34.8L32.7 32.8Q35.6 30.3 38.5 27.1Q40.3 25.3 41.2 23.7Q42.1 22.1 42.1 20.5Q42.1 19.5 41.7 18.8Q41.3 18.2 40.7 17.8Q40.1 17.5 39.5 17.4Q38.9 17.2 38.5 17.2Q37.1 17.2 36.1 17.5Q35.1 17.8 34.6 18.1L33.8 15.9Q34.7 15.5 36 15.2Q37.2 14.9 39.4 14.9Q41.6 14.9 43.1 15.6Q44.6 16.2 45.4 17.4Q46.2 18.5 46.2 19.9Q46.2 21.5 45.4 23Q44.6 24.5 42.8 26.3Q40.7 28.4 37 31.6M61.9 29.2Q61.9 30.9 61 32.2Q60 33.5 58.3 34.3Q56.6 35.1 54.3 35.1Q52.4 35.1 51.1 34.7Q49.7 34.4 48.8 33.9L49.5 31.6Q50.1 31.9 51.3 32.3Q52.4 32.7 53.9 32.7Q55.3 32.7 56.2 32.2Q57 31.7 57.5 30.9Q57.9 30.1 57.9 29.1Q57.9 28 57.3 27.1Q56.7 26.2 55.5 25.7Q54.9 25.5 54.1 25.5Q53.2 25.4 52.5 25.4L51.5 25.4L51.5 23.5L52.3 23.5Q53.2 23.5 54 23.4Q54.8 23.3 55.5 22.8Q56.1 22.5 56.5 21.8Q57 21.1 57 20.2Q57 18.7 56.1 18Q55.2 17.2 53.6 17.2Q52.4 17.2 51.5 17.5Q50.6 17.8 50.1 18.1L49.3 15.9Q49.9 15.5 51.2 15.2Q52.4 14.9 54.4 14.9Q57.4 14.9 59.1 16.1Q60.9 17.3 60.9 19.5Q60.9 20.8 60.2 21.7Q59.6 22.6 58.7 23.2Q57.7 23.9 56.6 24.2Q58.1 24.4 59.3 25.1Q60.5 25.7 61.2 26.8Q61.9 27.8 61.9 29.2" fill="#231F20"></path></g></g></svg>