<svg xmlns="http://www.w3.org/2000/svg" aria-hidden="true" fill="none" focusable="false" height="54" viewBox="0 0 269.4761904761905 54" width="269.4761904761905"><g><g transform="translate(2 2) scale(0.3968253968253968)"><path d="M223 0H34.825c-13.992 0-21.925 13.52-24.028 17.671C3.636 31.809 0 47.055 0 63s3.636 31.2 10.797 45.329C12.9 112.48 20.833 126 34.825 126H223" fill="none" stroke="white" stroke-linecap="butt" stroke-linejoin="round" stroke-width="10.08"></path><path d="M223 126H34.825c-13.992 0-21.925-13.52-24.028-17.671C3.636 94.191 0 78.945 0 63s3.636-31.2 10.797-45.34C12.9 13.52 20.843 0 34.825 0H223v126" fill="#FF9E18" fill-rule="evenodd"></path></g><g transform="translate(90.4920634920635 2) scale(0.3968253968253968)"><path d="M0 0H223M0 126H223" fill="none" stroke="white" stroke-linecap="butt" stroke-linejoin="round" stroke-width="10.08"></path><path d="M0 63V0h223v126H0z" fill="#9D5918" fill-rule="evenodd"></path></g><g transform="translate(178.984126984127 2) scale(0.3968253968253968)"><path d="M0 0h188.177c13.981 0 21.923 13.52 24.027 17.66C219.364 31.8 223 47.056 223 63s-3.636 31.2-10.796 45.329C210.1 112.47 202.168 126 188.177 126H0" fill="none" stroke="white" stroke-linecap="butt" stroke-linejoin="round" stroke-width="10.08"></path><path d="M0 0h188.177c13.981 0 21.923 13.52 24.027 17.66C219.364 31.8 223 47.056 223 63s-3.636 31.2-10.796 45.329C210.1 112.47 202.168 126 188.177 126H0z" fill="#E1251B" fill-rule="evenodd"></path></g></g><g><g transform="translate(14.263609871031747 2)"><path d="M14.9 15.8L14.1 18.2Q13.5 17.9 12.6 17.6Q11.7 17.2 10.6 17.2Q8.9 17.2 7.8 18.3Q6.6 19.3 6.1 21.1Q5.5 22.8 5.5 25Q5.5 28.6 6.8 30.7Q8.1 32.7 10.4 32.7Q11.1 32.7 11.9 32.5Q12.6 32.3 13.2 32.1Q13.8 31.8 14.1 31.6L14.9 34Q14 34.5 12.7 34.8Q11.4 35.1 9.6 35.1Q7.3 35.1 5.7 34.3Q4.1 33.5 3.1 32.1Q2 30.7 1.5 28.8Q1.1 27 1.1 25.1Q1.1 22.2 2.1 19.9Q3.2 17.6 5.2 16.2Q7.2 14.9 10.1 14.9Q12.9 14.9 14.9 15.8M29.6 15.8L28.9 18.2Q28.3 17.9 27.4 17.6Q26.4 17.2 25.4 17.2Q23.7 17.2 22.5 18.3Q21.4 19.3 20.8 21.1Q20.2 22.8 20.2 25Q20.2 28.6 21.6 30.7Q22.9 32.7 25.1 32.7Q25.9 32.7 26.6 32.5Q27.3 32.3 27.9 32.1Q28.5 31.8 28.9 31.6L29.7 34Q28.8 34.5 27.4 34.8Q26.1 35.1 24.3 35.1Q22.1 35.1 20.5 34.3Q18.8 33.5 17.8 32.1Q16.8 30.7 16.3 28.8Q15.8 27 15.8 25.1Q15.8 22.2 16.9 19.9Q17.9 17.6 19.9 16.2Q22 14.9 24.9 14.9Q27.6 14.9 29.6 15.8" fill="#231F20"></path><path d="M48.2 29.2Q48.2 30.9 47.2 32.2Q46.3 33.5 44.6 34.3Q42.9 35.1 40.5 35.1Q38.7 35.1 37.3 34.7Q36 34.4 35 33.9L35.8 31.6Q36.3 31.9 37.5 32.3Q38.7 32.7 40.2 32.7Q41.5 32.7 42.4 32.2Q43.3 31.7 43.7 30.9Q44.1 30.1 44.1 29.1Q44.1 28 43.6 27.1Q43 26.2 41.8 25.7Q41.2 25.5 40.3 25.5Q39.5 25.4 38.7 25.4L37.8 25.4L37.8 23.5L38.5 23.5Q39.4 23.5 40.2 23.4Q41.1 23.3 41.8 22.8Q42.4 22.5 42.8 21.8Q43.2 21.1 43.2 20.2Q43.2 18.7 42.3 18Q41.4 17.2 39.9 17.2Q38.7 17.2 37.8 17.5Q36.9 17.8 36.3 18.1L35.5 15.9Q36.2 15.5 37.4 15.2Q38.7 14.9 40.7 14.9Q43.6 14.9 45.4 16.1Q47.1 17.3 47.1 19.5Q47.1 20.8 46.5 21.7Q45.9 22.6 44.9 23.2Q43.9 23.9 42.8 24.2Q44.4 24.4 45.6 25.1Q46.8 25.7 47.5 26.8Q48.2 27.8 48.2 29.2M63 29.2Q63 30.9 62.1 32.2Q61.1 33.5 59.4 34.3Q57.7 35.1 55.4 35.1Q53.5 35.1 52.1 34.7Q50.8 34.4 49.9 33.9L50.6 31.6Q51.1 31.9 52.3 32.3Q53.5 32.7 55 32.7Q56.4 32.7 57.2 32.2Q58.1 31.7 58.5 30.9Q59 30.1 59 29.1Q59 28 58.4 27.1Q57.8 26.2 56.6 25.7Q56 25.5 55.2 25.5Q54.3 25.4 53.5 25.4L52.6 25.4L52.6 23.5L53.3 23.5Q54.3 23.5 55.1 23.4Q55.9 23.3 56.6 22.8Q57.2 22.5 57.6 21.8Q58 21.1 58 20.2Q58 18.7 57.1 18Q56.3 17.2 54.7 17.2Q53.5 17.2 52.6 17.5Q51.7 17.8 51.1 18.1L50.3 15.9Q51 15.5 52.3 15.2Q53.5 14.9 55.5 14.9Q58.5 14.9 60.2 16.1Q61.9 17.3 61.9 19.5Q61.9 20.8 61.3 21.7Q60.7 22.6 59.7 23.2Q58.8 23.9 57.7 24.2Q59.2 24.4 60.4 25.1Q61.6 25.7 62.3 26.8Q63 27.8 63 29.2" fill="#231F20"></path></g><g transform="translate(100.71856398809524 2)"><path d="M9.8 34.8L5.8 34.8L5.8 21Q5.8 20.2 6.7 19.1Q7.6 18 9 17.7L9 17.6L0.8 17.6L0.7 15.2L15 15.2L15 17.6L9.8 17.6L9.8 34.8M29.8 34.8L18 34.8L18 20.8Q18 20 18.9 19Q19.9 17.9 21.2 17.5L21.2 17.4L17.6 17.4L17.4 15.2L29.7 15.2L29.7 17.6L22 17.6L22 23.5L29.1 23.5L29.1 25.8L22 25.8L22 32.3L29.8 32.3" fill="white"></path><path d="M39.8 31.6L49.5 31.6L49.5 34.8L35.5 34.8L35.5 32.8Q38.4 30.3 41.3 27.1Q43 25.3 44 23.7Q44.9 22.1 44.9 20.5Q44.9 19.5 44.5 18.8Q44.1 18.2 43.5 17.8Q42.9 17.5 42.3 17.4Q41.7 17.2 41.3 17.2Q39.9 17.2 38.9 17.5Q37.9 17.8 37.4 18.1L36.6 15.9Q37.5 15.5 38.7 15.2Q40 14.9 42.2 14.9Q44.4 14.9 45.9 15.6Q47.4 16.2 48.2 17.4Q49 18.5 49 19.9Q49 21.5 48.2 23Q47.4 24.5 45.5 26.3Q43.5 28.4 39.8 31.6M53.1 25.1Q53.1 24.1 53.2 22.7Q53.3 21.4 53.7 20Q54.1 18.7 54.9 17.5Q55.7 16.3 56.9 15.6Q58.2 14.9 60.1 14.9Q61.8 14.9 63 15.5Q64.2 16.2 64.9 17.3Q65.7 18.3 66.1 19.6Q66.5 20.9 66.6 22.3Q66.7 23.6 66.7 24.7Q66.7 26 66.6 27.4Q66.4 28.8 66 30.2Q65.6 31.6 64.9 32.7Q64.1 33.8 62.9 34.4Q61.6 35.1 59.8 35.1Q58 35.1 56.8 34.4Q55.6 33.7 54.8 32.6Q54.1 31.4 53.7 30.1Q53.3 28.7 53.2 27.4Q53.1 26.1 53.1 25.1M57 25Q57 26.7 57.1 28.2Q57.2 29.7 57.5 30.8Q57.8 31.9 58.3 32.5Q58.9 33.1 59.9 33.1Q61.1 33.1 61.7 32.2Q62.3 31.2 62.5 29.4Q62.8 27.5 62.8 25Q62.8 20.5 62.2 18.7Q61.6 16.8 60 16.8Q59 16.8 58.4 17.5Q57.8 18.1 57.5 19.3Q57.2 20.4 57.1 21.9Q57 23.4 57 25" fill="white"></path></g><g transform="translate(189.78484623015873 2)"><path d="M16.6 15L16.6 34.8L14.1 34.8L4.3 21.5L4.3 34.8L1.7 34.8L1.7 15.2L4.2 15.2L13.9 28.4L13.9 17.3Q13.9 16.9 14.3 16.3Q14.7 15.8 15.3 15.4Q15.9 15 16.6 15M30.3 15.7L29.5 18.1Q28.8 17.7 27.8 17.4Q26.8 17.2 25.8 17.2Q24.4 17.2 23.7 17.7Q22.9 18.3 22.9 19.3Q22.9 20.1 23.4 20.8Q24 21.5 25.4 22.4L26.7 23.3Q28.1 24.2 29.1 25.1Q30.1 26 30.6 27.1Q31.1 28.2 31.1 29.6Q31.1 32.2 29.4 33.6Q27.7 35.1 24.6 35.1Q23.4 35.1 22.5 34.9Q21.5 34.7 20.8 34.4Q20 34.1 19.4 33.9L20.3 31.3Q21 31.8 22.1 32.3Q23.3 32.8 24.5 32.8Q25.6 32.8 26.2 32.4Q26.9 32.1 27.2 31.6Q27.5 31.1 27.5 30.5Q27.5 29.5 26.8 28.8Q26.2 28.1 24.7 27.1L23.4 26.3Q21.3 24.9 20.3 23.5Q19.3 22.1 19.3 20.1Q19.3 18.5 20.1 17.3Q20.9 16.1 22.4 15.5Q23.8 14.9 25.7 14.9Q28.2 14.9 30.3 15.7" fill="white"></path><path d="M41.1 31.6L50.9 31.6L50.9 34.8L36.8 34.8L36.8 32.8Q39.7 30.3 42.6 27.1Q44.4 25.2 45.3 23.7Q46.2 22.1 46.2 20.5Q46.2 19.5 45.8 18.8Q45.4 18.2 44.8 17.8Q44.2 17.5 43.6 17.3Q43 17.2 42.6 17.2Q41.2 17.2 40.2 17.5Q39.2 17.8 38.7 18.1L37.9 15.9Q38.8 15.4 40.1 15.2Q41.3 14.9 43.5 14.9Q45.7 14.9 47.2 15.6Q48.7 16.2 49.5 17.4Q50.3 18.5 50.3 19.9Q50.3 21.5 49.5 23Q48.7 24.5 46.9 26.3Q44.8 28.4 41.1 31.6M52.7 18.4L52.7 15.2L66.4 15.2L66.4 17.1L57.6 34.8L54.9 34.8L63.3 18.4" fill="white"></path></g></g></svg>