<svg xmlns="http://www.w3.org/2000/svg" aria-hidden="true" fill="none" focusable="false" height="54" viewBox="0 0 180.984126984127 54" width="180.984126984127"><g><g transform="translate(2 2) scale(0.3968253968253968)"><path d="M223 0H34.825c-13.992 0-21.925 13.52-24.028 17.671C3.636 31.809 0 47.055 0 63s3.636 31.2 10.797 45.329C12.9 112.48 20.833 126 34.825 126H223" fill="none" stroke="white" stroke-linecap="butt" stroke-linejoin="round" stroke-width="10.08"></path><path d="M223 126H34.825c-13.992 0-21.925-13.52-24.028-17.671C3.636 94.191 0 78.945 0 63s3.636-31.2 10.797-45.34C12.9 13.52 20.843 0 34.825 0H223v126" fill="#FF9E18" fill-rule="evenodd"></path></g><g transform="translate(90.4920634920635 2) scale(0.3968253968253968)"><path d="M0 0h188.177c13.981 0 21.923 13.52 24.027 17.66C219.364 31.8 223 47.056 223 63s-3.636 31.2-10.796 45.329C210.1 112.47 202.168 126 188.177 126H0" fill="none" stroke="white" stroke-linecap="butt" stroke-linejoin="round" stroke-width="10.08"></path><path d="M0 0h188.177c13.981 0 21.923 13.52 24.027 17.66C219.364 31.8 223 47.056 223 63s-3.636 31.2-10.796 45.329C210.1 112.47 202.168 126 188.177 126H0z" fill="#005DA6" fill-rule="evenodd"></path></g></g><g><g transform="translate(13.709898933531747 2)"><path d="M14.9 15.8L14.1 18.2Q13.5 17.9 12.6 17.6Q11.7 17.2 10.6 17.2Q8.9 17.2 7.8 18.3Q6.6 19.3 6.1 21.1Q5.5 22.8 5.5 25Q5.5 28.6 6.8 30.7Q8.1 32.7 10.4 32.7Q11.1 32.7 11.9 32.5Q12.6 32.3 13.2 32.1Q13.8 31.8 14.1 31.6L14.9 34Q14 34.5 12.7 34.8Q11.4 35.1 9.6 35.1Q7.3 35.1 5.7 34.3Q4.1 33.5 3.1 32.1Q2 30.7 1.5 28.8Q1.1 27 1.1 25.1Q1.1 22.2 2.1 19.9Q3.2 17.6 5.2 16.2Q7.2 14.9 10.1 14.9Q12.9 14.9 14.9 15.8M29.6 15.8L28.9 18.2Q28.3 17.9 27.4 17.6Q26.4 17.2 25.4 17.2Q23.7 17.2 22.5 18.3Q21.4 19.3 20.8 21.1Q20.2 22.8 20.2 25Q20.2 28.6 21.6 30.7Q22.9 32.7 25.1 32.7Q25.9 32.7 26.6 32.5Q27.3 32.3 27.9 32.1Q28.5 31.8 28.9 31.6L29.7 34Q28.8 34.5 27.4 34.8Q26.1 35.1 24.3 35.1Q22.1 35.1 20.5 34.3Q18.8 33.5 17.8 32.1Q16.8 30.7 16.3 28.8Q15.8 27 15.8 25.1Q15.8 22.2 16.9 19.9Q17.9 17.6 19.9 16.2Q22 14.9 24.9 14.9Q27.6 14.9 29.6 15.8" fill="#231F20"></path><path d="M48.2 29.2Q48.2 30.9 47.2 32.2Q46.3 33.5 44.6 34.3Q42.9 35.1 40.5 35.1Q38.7 35.1 37.3 34.7Q36 34.4 35 33.9L35.8 31.6Q36.3 31.9 37.5 32.3Q38.7 32.7 40.2 32.7Q41.5 32.7 42.4 32.2Q43.3 31.7 43.7 30.9Q44.1 30.1 44.1 29.1Q44.1 28 43.6 27.1Q43 26.2 41.8 25.7Q41.2 25.5 40.3 25.5Q39.5 25.4 38.7 25.4L37.8 25.4L37.8 23.5L38.5 23.5Q39.4 23.5 40.2 23.4Q41.1 23.3 41.8 22.8Q42.4 22.5 42.8 21.8Q43.2 21.1 43.2 20.2Q43.2 18.7 42.3 18Q41.4 17.2 39.9 17.2Q38.7 17.2 37.8 17.5Q36.9 17.8 36.3 18.1L35.5 15.9Q36.2 15.5 37.4 15.2Q38.7 14.9 40.7 14.9Q43.6 14.9 45.4 16.1Q47.1 17.3 47.1 19.5Q47.1 20.8 46.5 21.7Q45.9 22.6 44.9 23.2Q43.9 23.9 42.8 24.2Q44.4 24.4 45.6 25.1Q46.8 25.7 47.5 26.8Q48.2 27.8 48.2 29.2M50.3 27.3L59.7 15.2L62.1 15.2L62.1 27L64.5 27L64.5 29.3L62.1 29.3L62.1 34.8L58.5 34.8L58.5 29.3L50.3 29.3L50.3 27.3M58.5 27L58.5 20L53.2 27" fill="#231F20"></path></g><g transform="translate(103.33672805059524 2)"><path d="M7.5 17.4L6.3 17.4L6.3 32.7L7.3 32.7Q8 32.7 8.8 32.6Q9.6 32.5 10.3 32.1Q11 31.7 11.5 30.8Q12.1 29.9 12.4 28.4Q12.8 26.9 12.8 24.5Q12.8 22.4 12.5 21.1Q12.2 19.7 11.7 19Q11.1 18.2 10.4 17.9Q9.8 17.5 9 17.5Q8.2 17.4 7.5 17.4M6.5 34.8L2.3 34.8L2.3 20.8Q2.3 20 3.2 18.9Q4.1 17.8 5.5 17.5L5.5 17.4L1.9 17.4L1.7 15.2L7 15.2Q8.3 15.2 9.6 15.2Q10.9 15.3 12.1 15.7Q13.3 16.1 14.4 17.1Q15.6 18.2 16.2 19.6Q16.7 21 16.9 22.3Q17 23.6 17 24.4Q17 26 16.7 27.8Q16.3 29.6 15.3 31.2Q14.3 32.7 12.5 33.7Q11.2 34.4 9.8 34.6Q8.3 34.8 6.5 34.8M25.6 34.8L21.6 34.8L21.6 21Q21.6 20.2 22.5 19.1Q23.4 18 24.8 17.7L24.8 17.6L16.6 17.6L16.4 15.2L30.7 15.2L30.7 17.6L25.6 17.6" fill="white"></path><path d="M34.1 19.2L41.2 15.2L43.6 15.2L43.6 34.8L39.9 34.8L39.9 18.2L35 21L34.1 19.2M60.7 15.9L59.9 18.1Q59.4 17.8 58.5 17.5Q57.6 17.2 56.5 17.2Q55 17.2 54 18Q52.9 18.9 52.4 20.6Q51.9 22.2 51.9 24.4Q51.9 24.7 51.9 24.9Q52.5 23.9 53.2 23.4Q54 22.9 54.8 22.7Q55.6 22.5 56.1 22.5Q57.6 22.5 58.9 23.2Q60.1 23.9 60.9 25.2Q61.7 26.5 61.7 28.5Q61.7 30.4 60.9 31.9Q60.1 33.4 58.6 34.2Q57.1 35.1 55.1 35.1Q53.3 35.1 52.1 34.5Q50.9 33.9 50.1 32.9Q49.3 31.9 48.8 30.6Q48.3 29.4 48.1 28Q47.9 26.6 47.9 25.4Q47.9 21.9 49 19.6Q50.2 17.3 52 16.1Q53.9 14.9 56.3 14.9Q57.3 14.9 58.2 15.1Q59 15.2 59.7 15.5Q60.3 15.7 60.7 15.9M52.2 29Q52.2 29.7 52.4 30.4Q52.5 31.1 52.8 31.8Q53.1 32.4 53.6 32.8Q54.2 33.1 55 33.1Q55.9 33.1 56.5 32.7Q57 32.3 57.3 31.6Q57.6 30.9 57.7 30.2Q57.8 29.4 57.8 28.8Q57.8 27.3 57.4 26.4Q57 25.5 56.4 25.1Q55.8 24.7 55.1 24.7Q53.6 24.7 52.9 25.9Q52.2 27 52.2 29" fill="white"></path></g></g></svg>