<svg xmlns="http://www.w3.org/2000/svg" aria-hidden="true" fill="none" focusable="false" height="54" viewBox="0 0 180.984126984127 54" width="180.984126984127"><g><g transform="translate(2 2) scale(0.3968253968253968)"><path d="M223 0H34.825c-13.992 0-21.925 13.52-24.028 17.671C3.636 31.809 0 47.055 0 63s3.636 31.2 10.797 45.329C12.9 112.48 20.833 126 34.825 126H223" fill="none" stroke="white" stroke-linecap="butt" stroke-linejoin="round" stroke-width="10.08"></path><path d="M223 126H34.825c-13.992 0-21.925-13.52-24.028-17.671C3.636 94.191 0 78.945 0 63s3.636-31.2 10.797-45.34C12.9 13.52 20.843 0 34.825 0H223v126" fill="#FF9E18" fill-rule="evenodd"></path></g><g transform="translate(90.4920634920635 2) scale(0.3968253968253968)"><path d="M0 0h188.177c13.981 0 21.923 13.52 24.027 17.66C219.364 31.8 223 47.056 223 63s-3.636 31.2-10.796 45.329C210.1 112.47 202.168 126 188.177 126H0" fill="none" stroke="white" stroke-linecap="butt" stroke-linejoin="round" stroke-width="10.08"></path><path d="M0 0h188.177c13.981 0 21.923 13.52 24.027 17.66C219.364 31.8 223 47.056 223 63s-3.636 31.2-10.796 45.329C210.1 112.47 202.168 126 188.177 126H0z" fill="#005DA6" fill-rule="evenodd"></path></g></g><g><g transform="translate(21.120055183531747 2)"><path d="M14.9 15.8L14.1 18.2Q13.5 17.9 12.6 17.6Q11.7 17.2 10.6 17.2Q8.9 17.2 7.8 18.3Q6.6 19.3 6.1 21.1Q5.5 22.8 5.5 25Q5.5 28.6 6.8 30.7Q8.1 32.7 10.4 32.7Q11.1 32.7 11.9 32.5Q12.6 32.3 13.2 32.1Q13.8 31.8 14.1 31.6L14.9 34Q14 34.5 12.7 34.8Q11.4 35.1 9.6 35.1Q7.3 35.1 5.7 34.3Q4.1 33.5 3.1 32.1Q2 30.7 1.5 28.8Q1.1 27 1.1 25.1Q1.1 22.2 2.1 19.9Q3.2 17.6 5.2 16.2Q7.2 14.9 10.1 14.9Q12.9 14.9 14.9 15.8M29.6 15.8L28.9 18.2Q28.3 17.9 27.4 17.6Q26.4 17.2 25.4 17.2Q23.7 17.2 22.5 18.3Q21.4 19.3 20.8 21.1Q20.2 22.8 20.2 25Q20.2 28.6 21.6 30.7Q22.9 32.7 25.1 32.7Q25.9 32.7 26.6 32.5Q27.3 32.3 27.9 32.1Q28.5 31.8 28.9 31.6L29.7 34Q28.8 34.5 27.4 34.8Q26.1 35.1 24.3 35.1Q22.1 35.1 20.5 34.3Q18.8 33.5 17.8 32.1Q16.8 30.7 16.3 28.8Q15.8 27 15.8 25.1Q15.8 22.2 16.9 19.9Q17.9 17.6 19.9 16.2Q22 14.9 24.9 14.9Q27.6 14.9 29.6 15.8" fill="#231F20"></path><path d="M35.5 27.3L44.9 15.2L47.2 15.2L47.2 27L49.7 27L49.7 29.3L47.2 29.3L47.2 34.8L43.7 34.8L43.7 29.3L35.5 29.3L35.5 27.3M43.7 27L43.7 20L38.3 27" fill="#231F20"></path></g><g transform="translate(104.02032180059524 2)"><path d="M7.5 17.3L6.3 17.3L6.3 32.5L7.3 32.5Q8 32.5 8.8 32.4Q9.6 32.3 10.3 31.9Q11 31.5 11.5 30.7Q12.1 29.8 12.4 28.3Q12.8 26.7 12.8 24.4Q12.8 22.3 12.5 20.9Q12.2 19.6 11.7 18.8Q11.1 18.1 10.4 17.7Q9.8 17.4 9 17.3Q8.2 17.3 7.5 17.3M6.5 34.7L2.3 34.7L2.3 20.6Q2.3 19.8 3.2 18.8Q4.1 17.7 5.5 17.3L5.5 17.2L1.9 17.2L1.7 15L7 15Q8.3 15 9.6 15.1Q10.9 15.2 12.1 15.6Q13.3 16 14.4 16.9Q15.6 18 16.2 19.4Q16.7 20.8 16.9 22.1Q17 23.5 17 24.3Q17 25.9 16.7 27.7Q16.3 29.5 15.3 31Q14.3 32.6 12.5 33.6Q11.2 34.3 9.8 34.5Q8.3 34.7 6.5 34.7M25.6 34.7L21.6 34.7L21.6 20.8Q21.6 20 22.5 19Q23.4 17.9 24.8 17.5L24.8 17.4L16.6 17.4L16.4 15L30.7 15L30.7 17.4L25.6 17.4" fill="white"></path><path d="M34.1 19L41.2 15L43.6 15L43.6 34.7L39.9 34.7L39.9 18L35 20.9L34.1 19M48 26L48 15L58.9 15L58.9 18.1L50.3 18.1L50.3 23.2Q51.1 22.9 52 22.8Q52.8 22.7 53.4 22.7Q54.7 22.7 56 23Q57.2 23.4 58.1 24.2Q59.1 24.9 59.7 26Q60.2 27.1 60.2 28.5Q60.2 29.7 59.7 30.9Q59.2 32.1 58.3 33Q57.3 33.9 55.9 34.4Q54.5 35 52.6 35Q51.3 35 50.3 34.8Q49.3 34.6 48.5 34.3Q47.7 34 47.2 33.7L48 31.4Q48.7 31.9 49.8 32.2Q50.8 32.6 52.2 32.6Q53.3 32.6 54.2 32.2Q55.1 31.8 55.7 31Q56.2 30.1 56.2 28.6Q56.2 27.6 55.8 26.8Q55.5 26.1 54.8 25.7Q54.2 25.2 53.5 25Q52.7 24.8 51.9 24.8Q51 24.8 50.2 25Q49.4 25.2 48.9 25.5Q48.4 25.7 48 26" fill="white"></path></g></g></svg>