<svg xmlns="http://www.w3.org/2000/svg" aria-hidden="true" fill="none" focusable="false" height="54" viewBox="0 0 180.984126984127 54" width="180.984126984127"><g><g transform="translate(2 2) scale(0.3968253968253968)"><path d="M223 0H34.825c-13.992 0-21.925 13.52-24.028 17.671C3.636 31.809 0 47.055 0 63s3.636 31.2 10.797 45.329C12.9 112.48 20.833 126 34.825 126H223" fill="none" stroke="white" stroke-linecap="butt" stroke-linejoin="round" stroke-width="10.08"></path><path d="M223 126H34.825c-13.992 0-21.925-13.52-24.028-17.671C3.636 94.191 0 78.945 0 63s3.636-31.2 10.797-45.34C12.9 13.52 20.843 0 34.825 0H223v126" fill="#FF9E18" fill-rule="evenodd"></path></g><g transform="translate(90.4920634920635 2) scale(0.3968253968253968)"><path d="M0 0h188.177c13.981 0 21.923 13.52 24.027 17.66C219.364 31.8 223 47.056 223 63s-3.636 31.2-10.796 45.329C210.1 112.47 202.168 126 188.177 126H0" fill="none" stroke="white" stroke-linecap="butt" stroke-linejoin="round" stroke-width="10.08"></path><path d="M0 0h188.177c13.981 0 21.923 13.52 24.027 17.66C219.364 31.8 223 47.056 223 63s-3.636 31.2-10.796 45.329C210.1 112.47 202.168 126 188.177 126H0z" fill="#FDA5D1" fill-rule="evenodd"></path></g></g><g><g transform="translate(20.586852058531747 2)"><path d="M14.9 15.8L14.1 18.2Q13.5 17.9 12.6 17.6Q11.7 17.2 10.6 17.2Q8.9 17.2 7.8 18.3Q6.6 19.3 6.1 21.1Q5.5 22.8 5.5 25Q5.5 28.6 6.8 30.7Q8.1 32.7 10.4 32.7Q11.1 32.7 11.9 32.5Q12.6 32.3 13.2 32.1Q13.8 31.8 14.1 31.6L14.9 34Q14 34.5 12.7 34.8Q11.4 35.1 9.6 35.1Q7.3 35.1 5.7 34.3Q4.1 33.5 3.1 32.1Q2 30.7 1.5 28.8Q1.1 27 1.1 25.1Q1.1 22.2 2.1 19.9Q3.2 17.6 5.2 16.2Q7.2 14.9 10.1 14.9Q12.9 14.9 14.9 15.8M29.6 15.8L28.9 18.2Q28.3 17.9 27.4 17.6Q26.4 17.2 25.4 17.2Q23.7 17.2 22.5 18.3Q21.4 19.3 20.8 21.1Q20.2 22.8 20.2 25Q20.2 28.6 21.6 30.7Q22.9 32.7 25.1 32.7Q25.9 32.7 26.6 32.5Q27.3 32.3 27.9 32.1Q28.5 31.8 28.9 31.6L29.7 34Q28.8 34.5 27.4 34.8Q26.1 35.1 24.3 35.1Q22.1 35.1 20.5 34.3Q18.8 33.5 17.8 32.1Q16.8 30.7 16.3 28.8Q15.8 27 15.8 25.1Q15.8 22.2 16.9 19.9Q17.9 17.6 19.9 16.2Q22 14.9 24.9 14.9Q27.6 14.9 29.6 15.8" fill="#231F20"></path><path d="M49.2 15.9L48.4 18.1Q47.9 17.8 47 17.5Q46.1 17.2 45 17.2Q43.5 17.2 42.5 18Q41.4 18.9 40.9 20.6Q40.4 22.2 40.4 24.4Q40.4 24.7 40.5 24.9Q41 23.9 41.8 23.4Q42.5 22.9 43.3 22.7Q44.1 22.5 44.7 22.5Q46.1 22.5 47.4 23.2Q48.6 23.9 49.4 25.2Q50.2 26.5 50.2 28.5Q50.2 30.4 49.4 31.9Q48.6 33.4 47.1 34.2Q45.6 35.1 43.6 35.1Q41.9 35.1 40.6 34.5Q39.4 33.9 38.6 32.9Q37.8 31.9 37.3 30.6Q36.8 29.4 36.6 28Q36.4 26.6 36.4 25.4Q36.4 21.9 37.6 19.6Q38.7 17.3 40.6 16.1Q42.4 14.9 44.8 14.9Q45.8 14.9 46.7 15.1Q47.6 15.2 48.2 15.5Q48.8 15.7 49.2 15.9M40.8 29Q40.8 29.7 40.9 30.4Q41 31.1 41.3 31.8Q41.6 32.4 42.2 32.8Q42.7 33.1 43.5 33.1Q44.4 33.1 45 32.7Q45.5 32.3 45.8 31.6Q46.1 30.9 46.2 30.2Q46.3 29.4 46.3 28.8Q46.3 27.3 45.9 26.4Q45.5 25.5 44.9 25.1Q44.3 24.7 43.6 24.7Q42.1 24.7 41.4 25.9Q40.8 27 40.8 29" fill="#231F20"></path></g><g transform="translate(104.51250930059524 2)"><path d="M12.3 15.7L11.5 18.1Q10.8 17.7 9.8 17.4Q8.8 17.2 7.8 17.2Q6.4 17.2 5.6 17.7Q4.9 18.3 4.9 19.3Q4.9 20.2 5.4 20.8Q6 21.5 7.4 22.4L8.7 23.3Q10.1 24.2 11.1 25.1Q12.1 26 12.6 27.1Q13.1 28.2 13.1 29.6Q13.1 32.2 11.4 33.6Q9.7 35.1 6.6 35.1Q5.4 35.1 4.5 34.9Q3.5 34.7 2.7 34.4Q2 34.1 1.4 33.9L2.3 31.3Q3 31.8 4.1 32.3Q5.3 32.8 6.5 32.8Q7.5 32.8 8.2 32.4Q8.8 32.1 9.1 31.6Q9.4 31.1 9.4 30.5Q9.4 29.5 8.8 28.8Q8.2 28.1 6.6 27.1L5.4 26.3Q3.3 25 2.3 23.5Q1.3 22.1 1.3 20.1Q1.3 18.5 2.1 17.3Q2.9 16.1 4.3 15.5Q5.8 14.9 7.7 14.9Q10.2 14.9 12.3 15.7M23.9 34.8L19.9 34.8L19.9 21Q19.9 20.2 20.8 19.1Q21.7 18 23.1 17.7L23.1 17.6L14.9 17.6L14.7 15.2L29 15.2L29 17.6L23.9 17.6" fill="#231F20"></path><path d="M32.4 19.2L39.5 15.2L41.9 15.2L41.9 34.8L38.2 34.8L38.2 18.2L33.4 21L32.4 19.2M46.5 34.1L47.2 31.9Q47.9 32.3 48.8 32.6Q49.7 32.9 50.7 32.9Q51.9 32.9 52.8 32.3Q53.6 31.8 54.1 30.9Q54.6 30 54.8 29Q55.1 28 55.1 27Q55.2 26.1 55.2 25.4L55.2 25Q54.8 25.6 54.2 26.2Q53.6 26.8 52.8 27.2Q52 27.5 51 27.5Q49.6 27.5 48.3 26.9Q47 26.2 46.2 24.8Q45.4 23.4 45.4 21.5Q45.4 19.7 46.2 18.2Q47 16.7 48.4 15.8Q49.9 14.9 52.1 14.9Q53.8 14.9 55.1 15.5Q56.3 16 57.1 17Q57.9 18 58.4 19.1Q58.9 20.3 59 21.6Q59.2 22.9 59.2 24Q59.2 26.7 58.6 28.9Q58 31 56.8 32.6Q55.9 33.6 54.9 34.1Q53.9 34.7 52.9 34.9Q51.9 35.1 51.1 35.1Q49.6 35.1 48.5 34.8Q47.3 34.5 46.5 34.1M49.3 21Q49.3 22.1 49.5 23.1Q49.8 24.1 50.4 24.7Q51 25.3 52 25.3Q53 25.3 53.6 24.7Q54.3 24.2 54.6 23.2Q54.9 22.2 54.9 20.9Q54.9 19.8 54.6 18.8Q54.3 17.9 53.7 17.4Q53.1 16.8 52.1 16.8Q51.1 16.8 50.5 17.4Q49.8 18 49.6 19Q49.3 19.9 49.3 21" fill="#231F20"></path></g></g></svg>