<svg xmlns="http://www.w3.org/2000/svg" aria-hidden="true" fill="none" focusable="false" height="54" viewBox="0 0 180.984126984127 54" width="180.984126984127"><g><g transform="translate(2 2) scale(0.3968253968253968)"><path d="M223 0H34.825c-13.992 0-21.925 13.52-24.028 17.671C3.636 31.809 0 47.055 0 63s3.636 31.2 10.797 45.329C12.9 112.48 20.833 126 34.825 126H223" fill="none" stroke="white" stroke-linecap="butt" stroke-linejoin="round" stroke-width="10.08"></path><path d="M223 126H34.825c-13.992 0-21.925-13.52-24.028-17.671C3.636 94.191 0 78.945 0 63s3.636-31.2 10.797-45.34C12.9 13.52 20.843 0 34.825 0H223v126" fill="#FF9E18" fill-rule="evenodd"></path></g><g transform="translate(90.4920634920635 2) scale(0.3968253968253968)"><path d="M0 0h188.177c13.981 0 21.923 13.52 24.027 17.66C219.364 31.8 223 47.056 223 63s-3.636 31.2-10.796 45.329C210.1 112.47 202.168 126 188.177 126H0" fill="none" stroke="white" stroke-linecap="butt" stroke-linejoin="round" stroke-width="10.08"></path><path d="M0 0h188.177c13.981 0 21.923 13.52 24.027 17.66C219.364 31.8 223 47.056 223 63s-3.636 31.2-10.796 45.329C210.1 112.47 202.168 126 188.177 126H0z" fill="#00953B" fill-rule="evenodd"></path></g></g><g><g transform="translate(20.921812996031747 2)"><path d="M14.9 15.8L14.1 18.2Q13.5 17.9 12.6 17.6Q11.7 17.2 10.6 17.2Q8.9 17.2 7.8 18.3Q6.6 19.3 6.1 21.1Q5.5 22.8 5.5 25Q5.5 28.6 6.8 30.7Q8.1 32.7 10.4 32.7Q11.1 32.7 11.9 32.5Q12.6 32.3 13.2 32.1Q13.8 31.8 14.1 31.6L14.9 34Q14 34.5 12.7 34.8Q11.4 35.1 9.6 35.1Q7.3 35.1 5.7 34.3Q4.1 33.5 3.1 32.1Q2 30.7 1.5 28.8Q1.1 27 1.1 25.1Q1.1 22.2 2.1 19.9Q3.2 17.6 5.2 16.2Q7.2 14.9 10.1 14.9Q12.9 14.9 14.9 15.8M29.6 15.8L28.9 18.2Q28.3 17.9 27.4 17.6Q26.4 17.2 25.4 17.2Q23.7 17.2 22.5 18.3Q21.4 19.3 20.8 21.1Q20.2 22.8 20.2 25Q20.2 28.6 21.6 30.7Q22.9 32.7 25.1 32.7Q25.9 32.7 26.6 32.5Q27.3 32.3 27.9 32.1Q28.5 31.8 28.9 31.6L29.7 34Q28.8 34.5 27.4 34.8Q26.1 35.1 24.3 35.1Q22.1 35.1 20.5 34.3Q18.8 33.5 17.8 32.1Q16.8 30.7 16.3 28.8Q15.8 27 15.8 25.1Q15.8 22.2 16.9 19.9Q17.9 17.6 19.9 16.2Q22 14.9 24.9 14.9Q27.6 14.9 29.6 15.8" fill="#231F20"></path><path d="M36.6 34.1L37.4 31.9Q38.1 32.3 39 32.6Q39.8 32.9 40.9 32.9Q42.1 32.9 43 32.3Q43.8 31.8 44.3 30.9Q44.8 30 45 29Q45.3 28 45.3 27Q45.4 26.1 45.4 25.4L45.4 25Q45 25.6 44.4 26.2Q43.8 26.8 43 27.2Q42.2 27.5 41.2 27.5Q39.8 27.5 38.5 26.9Q37.2 26.2 36.4 24.8Q35.6 23.4 35.6 21.5Q35.6 19.7 36.4 18.2Q37.2 16.7 38.6 15.8Q40.1 14.9 42.3 14.9Q44 14.9 45.3 15.5Q46.5 16 47.3 17Q48.1 18 48.6 19.1Q49.1 20.3 49.2 21.6Q49.4 22.9 49.4 24Q49.4 26.7 48.8 28.9Q48.2 31 47 32.6Q46.1 33.6 45.1 34.1Q44.1 34.7 43.1 34.9Q42.1 35.1 41.3 35.1Q39.8 35.1 38.7 34.8Q37.5 34.5 36.6 34.1M39.5 21Q39.5 22.1 39.7 23.1Q40 24.1 40.6 24.7Q41.2 25.3 42.2 25.3Q43.2 25.3 43.8 24.7Q44.5 24.2 44.8 23.2Q45.1 22.2 45.1 20.9Q45.1 19.8 44.8 18.8Q44.5 17.9 43.9 17.4Q43.3 16.8 42.3 16.8Q41.3 16.8 40.6 17.4Q40 18 39.8 19Q39.5 19.9 39.5 21" fill="#231F20"></path></g><g transform="translate(102.04766555059524 2)"><path d="M14.1 34.8L2.3 34.8L2.3 20.8Q2.3 20 3.2 19Q4.1 17.9 5.5 17.5L5.5 17.4L1.9 17.4L1.7 15.2L13.9 15.2L13.9 17.6L6.3 17.6L6.3 23.5L13.4 23.5L13.4 25.8L6.3 25.8L6.3 32.3L14.1 32.3L14.1 34.8M21.1 35L16.7 15.2L20.8 15.2L23.5 29.3L27.3 15.2L30.3 15.2L33.8 29.3L36.3 17.3Q36.5 16.4 37.1 15.9Q37.6 15.4 38.3 15.2Q39 15 39.5 15L34.8 34.8L31.9 34.8L28.1 20.6L24.7 32.5Q24.5 33.5 23.9 34Q23.3 34.6 22.5 34.8Q21.8 35 21.1 35" fill="white"></path><path d="M59.7 19.8Q59.7 21.5 58.6 22.7Q57.4 24 55.7 24.5Q56 24.6 56.6 24.8Q57.1 25 57.7 25.3Q58.3 25.6 58.9 26.1Q59.4 26.7 59.8 27.5Q60.2 28.3 60.2 29.5Q60.2 30.6 59.7 31.6Q59.3 32.6 58.5 33.4Q57.6 34.2 56.3 34.6Q54.9 35.1 53.1 35.1Q51.1 35.1 49.8 34.6Q48.5 34.2 47.6 33.4Q46.8 32.6 46.5 31.6Q46.1 30.7 46.1 29.7Q46.1 28.6 46.5 27.7Q47 26.8 47.6 26.2Q48.3 25.6 49.1 25.2Q49.9 24.8 50.6 24.5Q49.1 24.1 48.2 23.4Q47.3 22.6 47 21.6Q46.7 20.7 46.7 19.9Q46.7 19 47 18.1Q47.4 17.2 48.2 16.5Q49 15.7 50.2 15.3Q51.5 14.9 53.2 14.9Q55 14.9 56.3 15.3Q57.5 15.8 58.3 16.5Q59 17.3 59.3 18.1Q59.7 19 59.7 19.8M50.4 20.2Q50.4 21.8 51.1 22.7Q51.9 23.6 53.2 23.6Q54.4 23.6 55.1 22.7Q55.9 21.8 55.9 20.2Q55.9 19.3 55.6 18.5Q55.3 17.7 54.7 17.3Q54 16.9 53.2 16.9Q52.2 16.9 51.6 17.4Q50.9 17.9 50.7 18.6Q50.4 19.4 50.4 20.2M50.1 29.4Q50.1 30.6 50.5 31.5Q50.9 32.3 51.6 32.8Q52.3 33.2 53.2 33.2Q54.2 33.2 54.8 32.7Q55.5 32.2 55.8 31.3Q56.2 30.4 56.2 29.3Q56.2 28.1 55.8 27.3Q55.3 26.4 54.6 26Q54 25.6 53.2 25.6Q51.8 25.6 51 26.6Q50.1 27.5 50.1 29.4" fill="white"></path></g></g></svg>